<svg width="76" height="76" viewBox="0 0 76 76" fill="none" xmlns="http://www.w3.org/2000/svg">
<mask id="mask0_119_223" style="mask-type:luminance" maskUnits="userSpaceOnUse" x="0" y="0" width="76" height="76">
<path d="M76 38C76 17.0132 58.9868 0 38 0C17.0132 0 0 17.0132 0 38C0 58.9868 17.0132 76 38 76C58.9868 76 76 58.9868 76 38Z" fill="white"/>
</mask>
<g mask="url(#mask0_119_223)">
<path d="M0 17.5384C0 7.85224 7.85224 0 17.5384 0H58.4616C68.1478 0 76 7.85224 76 17.5384V58.4616C76 68.1478 68.1478 76 58.4616 76H17.5384C7.85224 76 0 68.1478 0 58.4616V17.5384Z" fill="#0052FF"/>
<path d="M37.9324 51.4583C35.3918 51.407 32.9172 50.6409 30.7938 49.2486C28.6704 47.856 26.9843 45.8936 25.9298 43.5873C24.8754 41.2812 24.4953 38.7248 24.8333 36.2125C25.1714 33.7001 26.2138 31.3341 27.8405 29.3869C29.4674 27.4396 31.6125 25.9902 34.0288 25.2055C36.4452 24.4208 39.0346 24.3327 41.4989 24.9515C43.9633 25.5703 46.2023 26.8705 47.9582 28.7027C49.7143 30.535 50.9159 32.8248 51.4246 35.3083H64.9167C64.2244 28.4375 60.9113 22.0947 55.6624 17.5922C50.4137 13.0895 43.6308 10.7713 36.7167 11.117C29.8025 11.4627 23.2861 14.4459 18.515 19.4496C13.744 24.4532 11.0833 31.0944 11.0833 37.9999C11.0833 44.9053 13.744 51.5466 18.515 56.5503C23.2861 61.5539 29.8025 64.5371 36.7167 64.8829C43.6308 65.2285 50.4137 62.9104 55.6624 58.4077C60.9113 53.9051 64.2244 47.5623 64.9167 40.6916H51.4246C51.4246 46.0749 43.3292 51.4583 37.9324 51.4583Z" fill="white"/>
</g>
</svg>
