<svg width="82" height="83" viewBox="0 0 82 83" fill="none" xmlns="http://www.w3.org/2000/svg">
<g clip-path="url(#clip0_119_211)">
<mask id="mask0_119_211" style="mask-type:luminance" maskUnits="userSpaceOnUse" x="0" y="0" width="82" height="83">
<path d="M82 0H0V83H82V0Z" fill="white"/>
</mask>
<g mask="url(#mask0_119_211)">
<path d="M25.0755 34.8782L41.0023 18.7588L56.9341 34.8846L66.2012 25.5062L41.0023 0L15.81 25.4981L25.0755 34.8782ZM0 41.5023L9.26718 32.1207L18.5328 41.5023L9.26559 50.8777L0 41.5023ZM25.0755 48.125L41.0023 64.2428L56.9341 48.1169L66.206 57.4905L41.0023 83.0049L15.81 57.5037L15.7971 57.4889L25.0755 48.125ZM63.4688 41.5023L72.7345 32.1239L82.0049 41.5023L72.7391 50.8811L63.4688 41.5023Z" fill="#F3BA2F"/>
<path d="M50.3977 41.5023L41.0023 31.978L34.0513 39.0107L33.2505 39.8213L31.6056 41.4862L31.5928 41.4992L31.6056 41.5121L41.0023 51.0221L50.4041 41.5056H50.3962" fill="#F3BA2F"/>
</g>
</g>
<defs>
<clipPath id="clip0_119_211">
<rect width="82" height="83" fill="white"/>
</clipPath>
</defs>
</svg>
