<svg width="455" height="110" viewBox="0 0 455 110" fill="none" xmlns="http://www.w3.org/2000/svg">
<mask id="path-1-outside-1_663_114" maskUnits="userSpaceOnUse" x="3.98367" y="45.0699" width="53.6983" height="56.8115" fill="black">
<rect fill="white" x="3.98367" y="45.0699" width="53.6983" height="56.8115"/>
<path d="M18.1441 78.9258L13.4229 68.6763C12.0246 68.852 11.0298 68.2591 10.4384 66.8975C10.0442 65.9897 10.3333 64.8751 11.3059 63.5536C12.3087 62.219 13.585 61.0173 15.1349 59.9485C16.6716 58.8495 18.1964 57.9715 19.7093 57.3144C22.6745 56.0266 25.5389 55.3759 28.3024 55.3625C31.0961 55.336 33.5654 55.846 35.7103 56.8925C40.0697 59.0632 43.281 62.5238 45.3442 67.2742C47.3286 71.8431 47.6714 76.4415 46.3726 81.0696C45.747 83.3554 44.5078 85.5121 42.655 87.5396C40.8193 89.5237 38.3281 91.199 35.1814 92.5657C32.0346 93.9324 29.1143 94.6613 26.4205 94.7523C23.7267 94.8433 22.0841 94.208 21.4927 92.8465C20.9014 91.4849 21.2445 90.3288 22.522 89.3784L18.1441 78.9258ZM38.8659 69.872C37.4466 66.6042 35.2326 64.2391 32.2237 62.7766C29.2451 61.3009 25.8949 61.3713 22.1733 62.9877C21.1445 63.4345 20.2354 63.9912 19.446 64.6577C20.1568 66.5429 21.7541 70.3448 24.2378 76.0634C26.7215 81.7821 28.497 85.7044 29.5642 87.8304C30.6244 87.6217 31.7597 87.2545 32.97 86.7288C35.4208 85.6644 37.2523 84.1676 38.4645 82.2385C40.7164 78.5631 40.8502 74.4409 38.8659 69.872Z"/>
</mask>
<path d="M18.1441 78.9258L13.4229 68.6763C12.0246 68.852 11.0298 68.2591 10.4384 66.8975C10.0442 65.9897 10.3333 64.8751 11.3059 63.5536C12.3087 62.219 13.585 61.0173 15.1349 59.9485C16.6716 58.8495 18.1964 57.9715 19.7093 57.3144C22.6745 56.0266 25.5389 55.3759 28.3024 55.3625C31.0961 55.336 33.5654 55.846 35.7103 56.8925C40.0697 59.0632 43.281 62.5238 45.3442 67.2742C47.3286 71.8431 47.6714 76.4415 46.3726 81.0696C45.747 83.3554 44.5078 85.5121 42.655 87.5396C40.8193 89.5237 38.3281 91.199 35.1814 92.5657C32.0346 93.9324 29.1143 94.6613 26.4205 94.7523C23.7267 94.8433 22.0841 94.208 21.4927 92.8465C20.9014 91.4849 21.2445 90.3288 22.522 89.3784L18.1441 78.9258ZM38.8659 69.872C37.4466 66.6042 35.2326 64.2391 32.2237 62.7766C29.2451 61.3009 25.8949 61.3713 22.1733 62.9877C21.1445 63.4345 20.2354 63.9912 19.446 64.6577C20.1568 66.5429 21.7541 70.3448 24.2378 76.0634C26.7215 81.7821 28.497 85.7044 29.5642 87.8304C30.6244 87.6217 31.7597 87.2545 32.97 86.7288C35.4208 85.6644 37.2523 84.1676 38.4645 82.2385C40.7164 78.5631 40.8502 74.4409 38.8659 69.872Z" fill="#01D3EC"/>
<path d="M18.1441 78.9258L20.9967 77.7311L20.9757 77.6811L20.9531 77.6319L18.1441 78.9258ZM13.4229 68.6763L16.2318 67.3824L15.2843 65.3254L13.0373 65.6078L13.4229 68.6763ZM11.3059 63.5536L8.83339 61.6959L8.82416 61.7082L8.81506 61.7205L11.3059 63.5536ZM15.1349 59.9485L16.8905 62.4945L16.9123 62.4795L16.9339 62.464L15.1349 59.9485ZM28.3024 55.3625L28.3173 58.4551L28.3245 58.4551L28.3317 58.455L28.3024 55.3625ZM35.7103 56.8925L37.0888 54.1241L37.0776 54.1186L37.0664 54.1131L35.7103 56.8925ZM46.3726 81.0696L43.395 80.2341L43.3924 80.2436L43.3897 80.2532L46.3726 81.0696ZM42.655 87.5396L44.9251 89.6398L44.9315 89.6328L44.938 89.6258L42.655 87.5396ZM26.4205 94.7523L26.5249 97.8432L26.5249 97.8432L26.4205 94.7523ZM22.522 89.3784L24.368 91.8596L26.3093 90.4154L25.3745 88.1836L22.522 89.3784ZM32.2237 62.7766L30.8508 65.5478L30.8613 65.5529L30.8717 65.558L32.2237 62.7766ZM19.446 64.6577L17.4508 62.2947L15.7813 63.7044L16.5522 65.7489L19.446 64.6577ZM29.5642 87.8304L26.8002 89.2178L27.8549 91.3188L30.1615 90.8648L29.5642 87.8304ZM38.4645 82.2385L41.0831 83.8839L41.0924 83.8691L41.1015 83.8542L38.4645 82.2385ZM20.9531 77.6319L16.2318 67.3824L10.6139 69.9702L15.3352 80.2197L20.9531 77.6319ZM13.0373 65.6078C12.945 65.6194 12.9333 65.609 12.981 65.6173C13.0351 65.6267 13.1205 65.6526 13.2115 65.7068C13.3009 65.7601 13.3482 65.8124 13.359 65.8257C13.366 65.8344 13.3305 65.7931 13.2751 65.6655L7.6018 68.1295C8.08277 69.2369 8.8517 70.3089 10.0447 71.0199C11.2539 71.7407 12.578 71.8994 13.8084 71.7448L13.0373 65.6078ZM13.2751 65.6655C13.3273 65.7857 13.3537 65.9095 13.3593 66.0174C13.3647 66.1199 13.3495 66.1715 13.3532 66.1573C13.3576 66.1401 13.3799 66.0652 13.4508 65.9282C13.5215 65.7917 13.6313 65.6114 13.7967 65.3867L8.81506 61.7205C7.63615 63.3225 6.53443 65.6719 7.6018 68.1295L13.2751 65.6655ZM13.7784 65.4113C14.5571 64.3749 15.5805 63.3978 16.8905 62.4945L13.3792 57.4025C11.5895 58.6367 10.0603 60.063 8.83339 61.6959L13.7784 65.4113ZM16.9339 62.464C18.3185 61.4738 19.6546 60.7099 20.9413 60.151L18.4773 54.4778C16.7382 55.2331 15.0247 56.2252 13.3359 57.433L16.9339 62.464ZM20.9413 60.151C23.5868 59.002 26.0376 58.4662 28.3173 58.4551L28.2874 52.27C25.0401 52.2857 21.7622 53.0511 18.4773 54.4778L20.9413 60.151ZM28.3317 58.455C30.7273 58.4323 32.7084 58.869 34.3542 59.672L37.0664 54.1131C34.4224 52.823 31.4649 52.2398 28.273 52.2701L28.3317 58.455ZM34.3318 59.661C37.9961 61.4855 40.7145 64.3777 42.5076 68.5062L48.1809 66.0422C45.8475 60.6698 42.1433 56.6409 37.0888 54.1241L34.3318 59.661ZM42.5076 68.5062C44.2197 72.4482 44.4941 76.3173 43.395 80.2341L49.3503 81.9052C50.8486 76.5658 50.4374 71.2379 48.1809 66.0422L42.5076 68.5062ZM43.3897 80.2532C42.9126 81.9963 41.9468 83.73 40.372 85.4533L44.938 89.6258C47.0687 87.2941 48.5813 84.7146 49.3555 81.8861L43.3897 80.2532ZM40.3849 85.4393C38.9076 87.0361 36.8049 88.4889 33.9494 89.7291L36.4134 95.4024C39.8514 93.9092 42.7311 92.0112 44.9251 89.6398L40.3849 85.4393ZM33.9494 89.7291C31.0659 90.9814 28.5313 91.5866 26.316 91.6615L26.5249 97.8432C29.6972 97.736 33.0032 96.8835 36.4134 95.4024L33.9494 89.7291ZM26.316 91.6615C25.1869 91.6996 24.5662 91.5689 24.2838 91.4597C24.1608 91.4121 24.1518 91.3877 24.1944 91.4257C24.245 91.471 24.2976 91.5412 24.3294 91.6145L18.6561 94.0785C20.0823 97.3624 23.6643 97.9398 26.5249 97.8432L26.316 91.6615ZM24.3294 91.6145C24.288 91.5192 24.2966 91.5049 24.3021 91.5603C24.3049 91.5884 24.3063 91.6295 24.3017 91.6807C24.297 91.7322 24.2869 91.7857 24.2713 91.8382C24.2386 91.9485 24.1955 92.0086 24.1902 92.0156C24.1891 92.017 24.2331 91.96 24.368 91.8596L20.676 86.8971C19.6723 87.6439 18.7563 88.6816 18.3417 90.0783C17.9187 91.5038 18.14 92.8901 18.6561 94.0785L24.3294 91.6145ZM25.3745 88.1836L20.9967 77.7311L15.2916 80.1205L19.6695 90.5731L25.3745 88.1836ZM41.7025 68.64C40.0099 64.7427 37.2938 61.8023 33.5757 59.9951L30.8717 65.558C33.1714 66.6758 34.8834 68.4657 36.0293 71.104L41.7025 68.64ZM33.5966 60.0054C29.6232 58.0369 25.2967 58.2594 20.9413 60.151L23.4053 65.8243C26.4932 64.4832 28.867 64.5649 30.8508 65.5478L33.5966 60.0054ZM20.9413 60.151C19.6599 60.7076 18.489 61.4181 17.4508 62.2947L21.4411 67.0207C21.9818 66.5642 22.6291 66.1614 23.4053 65.8243L20.9413 60.151ZM16.5522 65.7489C17.2946 67.7175 18.9232 71.59 21.4012 77.2954L27.0744 74.8314C24.585 69.0995 23.019 65.3682 22.3397 63.5666L16.5522 65.7489ZM21.4012 77.2954C23.8827 83.009 25.6895 87.0052 26.8002 89.2178L32.3281 86.4429C31.3044 84.4036 29.5603 80.5551 27.0744 74.8314L21.4012 77.2954ZM30.1615 90.8648C31.4814 90.6049 32.8308 90.161 34.202 89.5654L31.738 83.8922C30.6885 84.348 29.7674 84.6384 28.9668 84.796L30.1615 90.8648ZM34.202 89.5654C37.1232 88.2967 39.4851 86.427 41.0831 83.8839L35.8459 80.5931C35.0196 81.9081 33.7184 83.032 31.738 83.8922L34.202 89.5654ZM41.1015 83.8542C43.9682 79.1755 44.0166 73.9681 41.7025 68.64L36.0293 71.104C37.6839 74.9137 37.4647 77.9506 35.8275 80.6228L41.1015 83.8542Z" fill="#30324F" mask="url(#path-1-outside-1_663_114)"/>
<mask id="path-3-outside-2_663_114" maskUnits="userSpaceOnUse" x="43.6259" y="34.5393" width="41.2655" height="51.7136" fill="black">
<rect fill="white" x="43.6259" y="34.5393" width="41.2655" height="51.7136"/>
<path d="M52.5375 44.4602L58.335 42.7511L63.9367 40.4814C65.0891 40.0791 66.1057 40.0387 66.9866 40.3602C67.8986 40.6708 68.5231 41.3088 68.8601 42.2743C69.1863 43.2087 69.089 44.0812 68.5683 44.8918C68.0788 45.6916 67.2579 46.2926 66.1055 46.6948L63.8608 47.3211C65.2517 52.0067 66.5125 55.9691 67.6431 59.2082C68.7628 62.4161 70.2361 66.2868 72.063 70.8202C73.1408 70.3043 73.851 69.9865 74.1936 69.867C75.3459 69.4647 76.3626 69.4243 77.2434 69.7458C78.1555 70.0564 78.78 70.6944 79.117 71.6599C79.4431 72.5943 79.3458 73.4668 78.8252 74.2774C78.3357 75.0772 77.5147 75.6782 76.3623 76.0804L70.5649 77.7895L64.9795 80.106C63.7959 80.5191 62.7482 80.5703 61.8362 80.2597C60.9553 79.9383 60.3463 79.2948 60.0093 78.3293C59.6723 77.3638 59.754 76.4967 60.2544 75.7281C60.7751 74.9175 61.6272 74.3056 62.8107 73.8925L65.0717 73.3129C63.6808 68.6273 62.42 64.665 61.2894 61.4259C60.1588 58.1868 58.6801 54.3005 56.8531 49.7671C55.9514 50.1867 55.0645 50.5486 54.1924 50.853C53.3515 51.1465 52.4805 51.1536 51.5793 50.8742C50.6984 50.5527 50.0895 49.9092 49.7525 48.9437C49.4155 47.9782 49.4917 47.0956 49.9813 46.2958C50.5019 45.4851 51.354 44.8733 52.5375 44.4602Z"/>
</mask>
<path d="M52.5375 44.4602L58.335 42.7511L63.9367 40.4814C65.0891 40.0791 66.1057 40.0387 66.9866 40.3602C67.8986 40.6708 68.5231 41.3088 68.8601 42.2743C69.1863 43.2087 69.089 44.0812 68.5683 44.8918C68.0788 45.6916 67.2579 46.2926 66.1055 46.6948L63.8608 47.3211C65.2517 52.0067 66.5125 55.9691 67.6431 59.2082C68.7628 62.4161 70.2361 66.2868 72.063 70.8202C73.1408 70.3043 73.851 69.9865 74.1936 69.867C75.3459 69.4647 76.3626 69.4243 77.2434 69.7458C78.1555 70.0564 78.78 70.6944 79.117 71.6599C79.4431 72.5943 79.3458 73.4668 78.8252 74.2774C78.3357 75.0772 77.5147 75.6782 76.3623 76.0804L70.5649 77.7895L64.9795 80.106C63.7959 80.5191 62.7482 80.5703 61.8362 80.2597C60.9553 79.9383 60.3463 79.2948 60.0093 78.3293C59.6723 77.3638 59.754 76.4967 60.2544 75.7281C60.7751 74.9175 61.6272 74.3056 62.8107 73.8925L65.0717 73.3129C63.6808 68.6273 62.42 64.665 61.2894 61.4259C60.1588 58.1868 58.6801 54.3005 56.8531 49.7671C55.9514 50.1867 55.0645 50.5486 54.1924 50.853C53.3515 51.1465 52.4805 51.1536 51.5793 50.8742C50.6984 50.5527 50.0895 49.9092 49.7525 48.9437C49.4155 47.9782 49.4917 47.0956 49.9813 46.2958C50.5019 45.4851 51.354 44.8733 52.5375 44.4602Z" fill="#01D3EC"/>
<path d="M52.5375 44.4602L51.663 41.4938L51.5901 41.5153L51.5184 41.5403L52.5375 44.4602ZM58.335 42.7511L59.2095 45.7175L59.3554 45.6745L59.4963 45.6174L58.335 42.7511ZM63.9367 40.4814L62.9176 37.5615L62.8458 37.5865L62.7754 37.6151L63.9367 40.4814ZM66.9866 40.3602L65.9264 43.2654L65.9579 43.2769L65.9897 43.2877L66.9866 40.3602ZM68.5683 44.8918L65.9662 43.2205L65.9481 43.2488L65.9306 43.2774L68.5683 44.8918ZM66.1055 46.6948L66.9366 49.6737L67.0316 49.6472L67.1247 49.6147L66.1055 46.6948ZM63.8608 47.3211L63.0297 44.3422L60.0014 45.1871L60.8961 48.2012L63.8608 47.3211ZM72.063 70.8202L69.1946 71.9762L70.4263 75.0325L73.3984 73.6097L72.063 70.8202ZM77.2434 69.7458L76.1833 72.651L76.2148 72.6625L76.2465 72.6733L77.2434 69.7458ZM78.8252 74.2774L76.223 72.6061L76.2049 72.6343L76.1874 72.6629L78.8252 74.2774ZM76.3623 76.0804L77.2368 79.0468L77.3097 79.0254L77.3815 79.0003L76.3623 76.0804ZM70.5649 77.7895L69.6904 74.8231L69.5324 74.8697L69.3802 74.9328L70.5649 77.7895ZM64.9795 80.106L65.9986 83.0258L66.0823 82.9966L66.1642 82.9627L64.9795 80.106ZM61.8362 80.2597L60.776 83.165L60.8075 83.1765L60.8392 83.1873L61.8362 80.2597ZM60.2544 75.7281L62.8462 77.4154L62.8514 77.4074L62.8566 77.3994L60.2544 75.7281ZM62.8107 73.8925L62.0428 70.8967L61.9156 70.9293L61.7915 70.9726L62.8107 73.8925ZM65.0717 73.3129L65.8395 76.3087L68.9503 75.5114L68.0364 72.4329L65.0717 73.3129ZM56.8531 49.7671L59.7216 48.6111L58.5034 45.5882L55.5485 46.9631L56.8531 49.7671ZM51.5793 50.8742L50.5191 53.7794L50.5906 53.8055L50.6633 53.828L51.5793 50.8742ZM49.9813 46.2958L47.3791 44.6245L47.361 44.6527L47.3435 44.6813L49.9813 46.2958ZM53.412 47.4266L59.2095 45.7175L57.4605 39.7847L51.663 41.4938L53.412 47.4266ZM59.4963 45.6174L65.0981 43.3476L62.7754 37.6151L57.1736 39.8848L59.4963 45.6174ZM64.9559 43.4012C65.6401 43.1624 65.8958 43.2543 65.9264 43.2654L68.0468 37.455C66.3156 36.8232 64.5381 36.9958 62.9176 37.5615L64.9559 43.4012ZM65.9897 43.2877C66.0126 43.2955 66.0102 43.2972 65.9921 43.286C65.9835 43.2807 65.9729 43.2735 65.9614 43.2643C65.9498 43.255 65.9388 43.2451 65.9289 43.2349C65.919 43.2248 65.9116 43.216 65.9065 43.2094C65.9016 43.203 65.9 43.2001 65.9011 43.202C65.9033 43.2057 65.9191 43.2327 65.9403 43.2935L71.78 41.2552C71.1518 39.4555 69.858 38.071 67.9835 37.4327L65.9897 43.2877ZM65.9403 43.2935C65.9566 43.3402 65.9581 43.3587 65.9572 43.3521C65.9563 43.3444 65.9544 43.3207 65.9582 43.2868C65.962 43.2527 65.9697 43.2244 65.9763 43.2064C65.9825 43.1895 65.9832 43.194 65.9662 43.2205L71.1705 46.5631C72.2212 44.9272 72.4096 43.059 71.78 41.2552L65.9403 43.2935ZM65.9306 43.2774C65.9136 43.3051 65.7705 43.5362 65.0863 43.775L67.1247 49.6147C68.7452 49.0491 70.2441 48.0781 71.2061 46.5063L65.9306 43.2774ZM65.2744 43.716L63.0297 44.3422L64.6919 50.3L66.9366 49.6737L65.2744 43.716ZM60.8961 48.2012C62.2956 52.9157 63.5714 56.9275 64.7232 60.2273L70.5629 58.189C69.4535 55.0106 68.2079 51.0977 66.8256 46.441L60.8961 48.2012ZM64.7232 60.2273C65.8642 63.4964 67.3566 67.4153 69.1946 71.9762L74.9315 69.6643C73.1156 65.1583 71.6613 61.3359 70.5629 58.189L64.7232 60.2273ZM73.3984 73.6097C73.9245 73.3578 74.3454 73.1618 74.6671 73.0179C74.8277 72.946 74.9556 72.8907 75.0541 72.8498C75.103 72.8295 75.1411 72.8142 75.1697 72.8031C75.1838 72.7976 75.1945 72.7935 75.2021 72.7907C75.2098 72.7879 75.2132 72.7867 75.2127 72.7868L73.1744 66.9471C72.6396 67.1338 71.7688 67.5324 70.7277 68.0308L73.3984 73.6097ZM75.2127 72.7868C75.8969 72.548 76.1527 72.6398 76.1833 72.651L78.3036 66.8406C76.5725 66.2088 74.795 66.3814 73.1744 66.9471L75.2127 72.7868ZM76.2465 72.6733C76.2695 72.6811 76.267 72.6828 76.2489 72.6716C76.2403 72.6663 76.2298 72.6591 76.2182 72.6499C76.2066 72.6406 76.1956 72.6306 76.1857 72.6205C76.1758 72.6104 76.1684 72.6016 76.1634 72.595C76.1584 72.5886 76.1568 72.5856 76.158 72.5876C76.1602 72.5913 76.1759 72.6183 76.1971 72.6791L82.0368 70.6408C81.4087 68.8411 80.1148 67.4566 78.2404 66.8183L76.2465 72.6733ZM76.1971 72.6791C76.2134 72.7257 76.2149 72.7443 76.2141 72.7377C76.2131 72.7299 76.2113 72.7063 76.215 72.6724C76.2188 72.6383 76.2265 72.61 76.2331 72.592C76.2394 72.5751 76.2401 72.5796 76.223 72.6061L81.4273 75.9487C82.478 74.3128 82.6665 72.4446 82.0368 70.6408L76.1971 72.6791ZM76.1874 72.6629C76.1704 72.6907 76.0274 72.9218 75.3432 73.1606L77.3815 79.0003C79.0021 78.4347 80.5009 77.4637 81.4629 75.8919L76.1874 72.6629ZM75.4878 73.114L69.6904 74.8231L71.4394 80.7559L77.2368 79.0468L75.4878 73.114ZM69.3802 74.9328L63.7947 77.2493L66.1642 82.9627L71.7497 80.6462L69.3802 74.9328ZM63.9603 77.1861C63.2314 77.4405 62.9172 77.3608 62.8331 77.3322L60.8392 83.1873C62.5792 83.7798 64.3605 83.5976 65.9986 83.0258L63.9603 77.1861ZM62.8963 77.3545C62.8818 77.3492 62.8885 77.3501 62.9077 77.3625C62.9168 77.3684 62.9269 77.3758 62.9374 77.3845C62.9479 77.3932 62.9572 77.402 62.9651 77.4103C62.9817 77.4279 62.9852 77.4361 62.9791 77.4257C62.9724 77.4142 62.9532 77.3789 62.9292 77.3101L57.0895 79.3485C57.7006 81.0994 58.9376 82.4941 60.776 83.165L62.8963 77.3545ZM62.9292 77.3101C62.9051 77.2412 62.8992 77.2044 62.8981 77.1969C62.8973 77.1906 62.9003 77.2086 62.8968 77.245C62.8933 77.2822 62.8846 77.3224 62.8713 77.3599C62.8582 77.3966 62.8461 77.4156 62.8462 77.4154L57.6626 74.0408C56.5746 75.7121 56.4783 77.5976 57.0895 79.3485L62.9292 77.3101ZM62.8566 77.3994C62.9046 77.3247 63.1009 77.0668 63.8299 76.8123L61.7915 70.9726C60.1534 71.5444 58.6456 72.5102 57.6523 74.0568L62.8566 77.3994ZM63.5786 76.8883L65.8395 76.3087L64.3038 70.3172L62.0428 70.8967L63.5786 76.8883ZM68.0364 72.4329C66.6369 67.7184 65.3611 63.7065 64.2093 60.4067L58.3696 62.445C59.479 65.6234 60.7246 69.5363 62.1069 74.193L68.0364 72.4329ZM64.2093 60.4067C63.0575 57.1069 61.5598 53.1725 59.7216 48.6111L53.9847 50.9231C55.8003 55.4285 57.2602 59.2666 58.3696 62.445L64.2093 60.4067ZM55.5485 46.9631C54.7329 47.3426 53.9412 47.6651 53.1733 47.9332L55.2116 53.7729C56.1877 53.4322 57.1699 53.0307 58.1578 52.5711L55.5485 46.9631ZM53.1733 47.9332C52.9954 47.9952 52.8043 48.0161 52.4953 47.9203L50.6633 53.828C52.1567 54.2911 53.7076 54.2979 55.2116 53.7729L53.1733 47.9332ZM52.6395 47.9689C52.625 47.9636 52.6317 47.9645 52.6509 47.9769C52.6599 47.9828 52.6701 47.9902 52.6806 47.9989C52.691 48.0076 52.7004 48.0165 52.7082 48.0248C52.7249 48.0423 52.7284 48.0506 52.7222 48.0401C52.7155 48.0286 52.6964 47.9933 52.6724 47.9246L46.8326 49.9629C47.4438 51.7138 48.6808 53.1085 50.5191 53.7794L52.6395 47.9689ZM52.6724 47.9246C52.6484 47.8558 52.6414 47.8162 52.6395 47.8031C52.6378 47.7911 52.6402 47.7997 52.6381 47.8238C52.6371 47.8352 52.6353 47.8479 52.6325 47.8613C52.6297 47.8746 52.6264 47.8867 52.6229 47.8969C52.6156 47.9186 52.611 47.9235 52.619 47.9103L47.3435 44.6813C46.3219 46.3504 46.2215 48.212 46.8326 49.9629L52.6724 47.9246ZM52.5834 47.9671C52.6314 47.8924 52.8278 47.6345 53.5567 47.38L51.5184 41.5403C49.8803 42.1121 48.3725 43.0779 47.3791 44.6245L52.5834 47.9671Z" fill="#30324F" mask="url(#path-3-outside-2_663_114)"/>
<mask id="path-5-outside-3_663_114" maskUnits="userSpaceOnUse" x="73.7161" y="24.7539" width="42.8696" height="51.9191" fill="black">
<rect fill="white" x="73.7161" y="24.7539" width="42.8696" height="51.9191"/>
<path d="M109.479 54.9977C110.335 58.081 109.894 60.9936 108.156 63.7356C106.409 66.4457 103.692 68.3125 100.004 69.336C97.0483 70.1565 94.1524 70.2071 91.3166 69.4878C88.4721 68.7368 86.8336 67.5825 86.4013 66.025C86.1631 65.1668 86.2551 64.3881 86.6773 63.6889C87.1224 62.9491 87.7741 62.4601 88.6323 62.2219C89.5223 61.9748 90.4644 62.0386 91.4584 62.4132C92.4755 62.7471 93.5605 63.0793 94.7135 63.4097C95.8895 63.6996 97.1926 63.646 98.623 63.2489C100.085 62.8431 101.238 62.0611 102.08 60.9029C102.946 59.7041 103.171 58.3577 102.756 56.8637C102.315 55.2744 100.503 54.0486 97.3192 53.1862C96.6906 53.0183 95.6595 52.7568 94.2257 52.4016C92.8237 52.0375 91.7519 51.753 91.0103 51.548C90.2687 51.3431 89.2676 51.0047 88.0069 50.533C86.7692 50.0207 85.7875 49.5057 85.0618 48.9882C83.268 47.7059 82.1064 46.1111 81.5771 44.2039C80.8889 41.7246 81.3626 39.2994 82.9982 36.9282C84.6568 34.5164 86.9324 32.9091 89.8249 32.1063C92.7493 31.2946 95.3989 31.1583 97.7738 31.6973C100.149 32.2363 101.53 33.2052 101.918 34.6038C102.174 35.5256 102.087 36.3202 101.656 36.9876C101.225 37.6549 100.58 38.1077 99.7219 38.346C98.8637 38.5842 97.6453 38.5115 96.0668 38.128C94.4794 37.7128 93.0817 37.6727 91.8739 38.008C90.6978 38.3344 89.7485 38.9231 89.0261 39.7741C88.3267 40.5845 88.1005 41.4347 88.3476 42.3247C88.6122 43.2783 89.472 44.0325 90.927 44.5872C92.0746 45.0218 93.5349 45.4724 95.3077 45.9389C97.1122 46.3966 98.4056 46.7395 99.1878 46.9674C99.9612 47.1636 101.023 47.5364 102.374 48.0858C103.757 48.6264 104.831 49.167 105.597 49.7075C106.363 50.248 107.115 50.9809 107.851 51.9063C108.619 52.823 109.161 53.8534 109.479 54.9977Z"/>
</mask>
<path d="M109.479 54.9977C110.335 58.081 109.894 60.9936 108.156 63.7356C106.409 66.4457 103.692 68.3125 100.004 69.336C97.0483 70.1565 94.1524 70.2071 91.3166 69.4878C88.4721 68.7368 86.8336 67.5825 86.4013 66.025C86.1631 65.1668 86.2551 64.3881 86.6773 63.6889C87.1224 62.9491 87.7741 62.4601 88.6323 62.2219C89.5223 61.9748 90.4644 62.0386 91.4584 62.4132C92.4755 62.7471 93.5605 63.0793 94.7135 63.4097C95.8895 63.6996 97.1926 63.646 98.623 63.2489C100.085 62.8431 101.238 62.0611 102.08 60.9029C102.946 59.7041 103.171 58.3577 102.756 56.8637C102.315 55.2744 100.503 54.0486 97.3192 53.1862C96.6906 53.0183 95.6595 52.7568 94.2257 52.4016C92.8237 52.0375 91.7519 51.753 91.0103 51.548C90.2687 51.3431 89.2676 51.0047 88.0069 50.533C86.7692 50.0207 85.7875 49.5057 85.0618 48.9882C83.268 47.7059 82.1064 46.1111 81.5771 44.2039C80.8889 41.7246 81.3626 39.2994 82.9982 36.9282C84.6568 34.5164 86.9324 32.9091 89.8249 32.1063C92.7493 31.2946 95.3989 31.1583 97.7738 31.6973C100.149 32.2363 101.53 33.2052 101.918 34.6038C102.174 35.5256 102.087 36.3202 101.656 36.9876C101.225 37.6549 100.58 38.1077 99.7219 38.346C98.8637 38.5842 97.6453 38.5115 96.0668 38.128C94.4794 37.7128 93.0817 37.6727 91.8739 38.008C90.6978 38.3344 89.7485 38.9231 89.0261 39.7741C88.3267 40.5845 88.1005 41.4347 88.3476 42.3247C88.6122 43.2783 89.472 44.0325 90.927 44.5872C92.0746 45.0218 93.5349 45.4724 95.3077 45.9389C97.1122 46.3966 98.4056 46.7395 99.1878 46.9674C99.9612 47.1636 101.023 47.5364 102.374 48.0858C103.757 48.6264 104.831 49.167 105.597 49.7075C106.363 50.248 107.115 50.9809 107.851 51.9063C108.619 52.823 109.161 53.8534 109.479 54.9977Z" fill="#01D3EC"/>
<path d="M108.156 63.7356L110.755 65.4111L110.761 65.4012L110.768 65.3913L108.156 63.7356ZM91.3166 69.4878L90.5272 72.478L90.5417 72.4818L90.5563 72.4855L91.3166 69.4878ZM86.6773 63.6889L89.3247 65.2874L89.3272 65.2833L86.6773 63.6889ZM91.4584 62.4132L90.368 65.3072L90.4304 65.3307L90.4937 65.3514L91.4584 62.4132ZM94.7135 63.4097L93.8615 66.3827L93.9172 66.3986L93.9734 66.4125L94.7135 63.4097ZM102.08 60.9029L104.581 62.7221L104.588 62.7131L102.08 60.9029ZM97.3192 53.1862L98.1278 50.2011L98.1172 50.1983L97.3192 53.1862ZM94.2257 52.4016L93.4484 55.3949L93.4652 55.3993L93.482 55.4034L94.2257 52.4016ZM88.0069 50.533L86.8241 53.3905L86.8732 53.4108L86.9231 53.4295L88.0069 50.533ZM85.0618 48.9882L83.2633 51.5041L83.2661 51.5061L85.0618 48.9882ZM82.9982 36.9282L85.544 38.6842L85.5465 38.6806L82.9982 36.9282ZM97.7738 31.6973L97.0893 34.7132L97.0893 34.7132L97.7738 31.6973ZM101.656 36.9876L104.254 38.6653L104.254 38.6653L101.656 36.9876ZM96.0668 38.128L95.284 41.12L95.3103 41.1268L95.3367 41.1332L96.0668 38.128ZM89.0261 39.7741L91.3673 41.7948L91.3756 41.7852L91.3838 41.7755L89.0261 39.7741ZM90.927 44.5872L89.8251 47.4769L89.8317 47.4794L90.927 44.5872ZM95.3077 45.9389L94.5206 48.9297L94.5339 48.9332L94.5473 48.9366L95.3077 45.9389ZM99.1878 46.9674L98.3226 49.9365L98.3748 49.9517L98.4275 49.9651L99.1878 46.9674ZM102.374 48.0858L101.209 50.9505L101.228 50.9584L101.248 50.9661L102.374 48.0858ZM105.597 49.7075L103.815 52.2347L103.815 52.2347L105.597 49.7075ZM107.851 51.9063L105.43 53.8316L105.455 53.8623L105.48 53.8925L107.851 51.9063ZM106.499 55.8248C107.117 58.0518 106.821 60.064 105.544 62.0798L110.768 65.3913C112.966 61.9232 113.553 58.1102 112.459 54.1706L106.499 55.8248ZM105.556 62.06C104.295 64.0174 102.278 65.4954 99.1773 66.356L100.832 72.3159C105.105 71.1297 108.523 68.874 110.755 65.4111L105.556 62.06ZM99.1773 66.356C96.7135 67.0398 94.3653 67.0705 92.077 66.4901L90.5563 72.4855C93.9395 73.3437 97.3831 73.2731 100.832 72.3159L99.1773 66.356ZM92.1061 66.4977C90.8882 66.1761 90.1487 65.8217 89.7355 65.5306C89.3562 65.2634 89.364 65.1354 89.3813 65.1979L83.4213 66.8521C84.3267 70.1138 87.4858 71.675 90.5272 72.478L92.1061 66.4977ZM89.3813 65.1979C89.3677 65.1489 89.3652 65.1242 89.3649 65.121C89.3647 65.1187 89.3661 65.1331 89.3629 65.1601C89.3597 65.1875 89.353 65.2169 89.3434 65.2443C89.334 65.2714 89.3254 65.2862 89.3247 65.2874L84.0298 62.0903C83.1255 63.5881 82.9785 65.2565 83.4213 66.8521L89.3813 65.1979ZM89.3272 65.2833C89.3437 65.2558 89.3545 65.2434 89.357 65.2405C89.3593 65.2379 89.3585 65.2391 89.356 65.241C89.3536 65.2428 89.3566 65.24 89.3693 65.2339C89.3825 65.2275 89.4109 65.2153 89.4594 65.2019L87.8052 59.2419C86.2112 59.6843 84.8945 60.6532 84.0273 62.0944L89.3272 65.2833ZM89.4594 65.2019C89.6254 65.1558 89.8921 65.1279 90.368 65.3072L92.5488 59.5191C91.0366 58.9493 89.4192 58.7939 87.8052 59.2419L89.4594 65.2019ZM90.4937 65.3514C91.5522 65.699 92.6751 66.0427 93.8615 66.3827L95.5655 60.4368C94.4459 60.1159 93.3988 59.7952 92.4232 59.4749L90.4937 65.3514ZM93.9734 66.4125C95.7694 66.8551 97.6226 66.7362 99.4502 66.2289L97.7959 60.269C96.7627 60.5557 96.0095 60.544 95.4536 60.4069L93.9734 66.4125ZM99.4502 66.2289C101.542 65.6482 103.302 64.4802 104.581 62.7221L99.5792 59.0836C99.173 59.6419 98.6281 60.038 97.7959 60.269L99.4502 66.2289ZM104.588 62.7131C106.033 60.7108 106.388 58.385 105.736 56.0366L99.7763 57.6908C99.9538 58.3304 99.858 58.6973 99.5726 59.0926L104.588 62.7131ZM105.736 56.0366C105.263 54.3308 104.113 53.0793 102.799 52.1907C101.505 51.3157 99.8991 50.681 98.1278 50.2012L96.5107 56.1713C97.9229 56.5538 98.8148 56.9632 99.3335 57.314C99.832 57.6512 99.8087 57.8073 99.7763 57.6908L105.736 56.0366ZM98.1172 50.1983C97.4593 50.0226 96.4045 49.7552 94.9694 49.3997L93.482 55.4034C94.9144 55.7583 95.922 56.0141 96.5213 56.1741L98.1172 50.1983ZM95.0029 49.4082C93.6055 49.0454 92.5523 48.7657 91.8343 48.5672L90.1864 54.5289C90.9516 54.7404 92.0419 55.0297 93.4484 55.3949L95.0029 49.4082ZM91.8343 48.5672C91.2219 48.3979 90.319 48.0961 89.0907 47.6365L86.9231 53.4295C88.2162 53.9133 89.3156 54.2882 90.1864 54.5289L91.8343 48.5672ZM89.1897 47.6755C88.0718 47.2128 87.3228 46.8021 86.8576 46.4703L83.2661 51.5061C84.2521 52.2093 85.4665 52.8286 86.8241 53.3905L89.1897 47.6755ZM86.8604 46.4723C85.5722 45.5515 84.8756 44.5244 84.557 43.3768L78.5971 45.0311C79.3373 47.6978 80.9638 49.8603 83.2633 51.5041L86.8604 46.4723ZM84.557 43.3768C84.1451 41.8926 84.3586 40.4027 85.544 38.6842L80.4525 35.1722C78.3667 38.196 77.6327 41.5565 78.5971 45.0311L84.557 43.3768ZM85.5465 38.6806C86.782 36.884 88.4401 35.7002 90.6521 35.0862L88.9978 29.1263C85.4247 30.118 82.5317 32.1489 80.45 35.1758L85.5465 38.6806ZM90.6521 35.0862C93.2027 34.3783 95.3217 34.312 97.0893 34.7132L98.4584 28.6814C95.4761 28.0045 92.2959 28.2109 88.9978 29.1263L90.6521 35.0862ZM97.0893 34.7132C98.0444 34.93 98.5651 35.1847 98.8155 35.3603C99.0196 35.5034 98.9665 35.5317 98.9385 35.4309L104.898 33.7766C104.038 30.677 101.154 29.2933 98.4584 28.6814L97.0893 34.7132ZM98.9385 35.4309C98.9814 35.5856 98.9638 35.6148 98.9707 35.5523C98.9741 35.5212 98.9826 35.4782 98.9999 35.4293C99.0173 35.3804 99.0385 35.3397 99.0578 35.3098L104.254 38.6653C105.261 37.1053 105.338 35.3602 104.898 33.7766L98.9385 35.4309ZM99.0578 35.3098C99.0548 35.3144 99.0561 35.3118 99.0617 35.3059C99.0674 35.3 99.0717 35.2968 99.0714 35.297C99.0708 35.2975 99.0599 35.3052 99.0336 35.3172C99.0069 35.3295 98.9622 35.3473 98.8948 35.366L100.549 41.3259C102.042 40.9115 103.361 40.0471 104.254 38.6653L99.0578 35.3098ZM98.8948 35.366C98.899 35.3648 98.86 35.3759 98.7649 35.3835C98.6702 35.391 98.5336 35.394 98.3485 35.383C97.9723 35.3606 97.4617 35.2844 96.7968 35.1228L95.3367 41.1332C97.0689 41.5541 98.9169 41.7789 100.549 41.3259L98.8948 35.366ZM96.8495 35.1361C94.8927 34.6242 92.9192 34.5083 91.0467 35.028L92.701 40.988C93.2443 40.8372 94.066 40.8013 95.284 41.12L96.8495 35.1361ZM91.0467 35.028C89.3323 35.5039 87.829 36.4056 86.6685 37.7727L91.3838 41.7755C91.6681 41.4407 92.0633 41.165 92.701 40.988L91.0467 35.028ZM86.685 37.7534C85.4346 39.2021 84.7966 41.0946 85.3676 43.1518L91.3275 41.4976C91.3328 41.5167 91.3426 41.5621 91.3434 41.6276C91.3442 41.694 91.3354 41.7589 91.3206 41.8147C91.2901 41.9292 91.2582 41.9212 91.3673 41.7948L86.685 37.7534ZM85.3676 43.1518C86.018 45.495 87.9887 46.7767 89.8251 47.4769L92.0288 41.6975C91.529 41.507 91.3037 41.345 91.2303 41.2806C91.1994 41.2534 91.2119 41.2582 91.2406 41.3017C91.2711 41.3481 91.3048 41.4157 91.3275 41.4976L85.3676 43.1518ZM89.8317 47.4794C91.1164 47.9659 92.689 48.4477 94.5206 48.9297L96.0947 42.9481C94.3808 42.4971 93.0329 42.0778 92.0222 41.695L89.8317 47.4794ZM94.5473 48.9366C96.3496 49.3938 97.5971 49.7251 98.3226 49.9365L100.053 43.9983C99.2141 43.7538 97.8748 43.3995 96.068 42.9412L94.5473 48.9366ZM98.4275 49.9651C98.9939 50.1088 99.901 50.4186 101.209 50.9505L103.539 45.2211C102.145 44.6542 100.929 44.2184 99.9481 43.9697L98.4275 49.9651ZM101.248 50.9661C102.516 51.462 103.335 51.896 103.815 52.2347L107.38 47.1803C106.327 46.4379 104.997 45.7909 103.5 45.2056L101.248 50.9661ZM103.815 52.2347C104.288 52.5684 104.832 53.0791 105.43 53.8316L110.271 49.9811C109.397 48.8828 108.439 47.9275 107.38 47.1803L103.815 52.2347ZM105.48 53.8925C105.967 54.4731 106.3 55.109 106.499 55.8248L112.459 54.1706C112.023 52.5979 111.271 51.1728 110.221 49.9202L105.48 53.8925Z" fill="#30324F" mask="url(#path-5-outside-3_663_114)"/>
<mask id="path-7-outside-4_663_114" maskUnits="userSpaceOnUse" x="107.908" y="17.1505" width="42.2641" height="50.8589" fill="black">
<rect fill="white" x="107.908" y="17.1505" width="42.2641" height="50.8589"/>
<path d="M132.66 42.0415L135.722 55.1535C136.43 58.6452 135.556 60.6401 133.099 61.1383C130.642 61.6365 129.059 60.1398 128.351 56.6481L126.065 43.3788C125.527 40.7277 124.568 36.5801 123.188 30.9358L117.476 32.3969C116.248 32.646 115.203 32.555 114.341 32.1238C113.512 31.6861 112.996 30.9661 112.792 29.9639C112.589 28.9616 112.784 28.0974 113.377 27.3713C114.003 26.6386 114.93 26.1477 116.159 25.8986L125.432 24.3213L134.587 22.1621C135.815 21.913 136.844 22.0073 137.674 22.445C138.535 22.8762 139.068 23.5929 139.271 24.5951C139.474 25.5974 139.263 26.4648 138.637 27.1975C138.044 27.9237 137.133 28.4113 135.904 28.6604L130.365 29.4806C131.069 33.7809 131.834 37.9679 132.66 42.0415Z"/>
</mask>
<path d="M132.66 42.0415L135.722 55.1535C136.43 58.6452 135.556 60.6401 133.099 61.1383C130.642 61.6365 129.059 60.1398 128.351 56.6481L126.065 43.3788C125.527 40.7277 124.568 36.5801 123.188 30.9358L117.476 32.3969C116.248 32.646 115.203 32.555 114.341 32.1238C113.512 31.6861 112.996 30.9661 112.792 29.9639C112.589 28.9616 112.784 28.0974 113.377 27.3713C114.003 26.6386 114.93 26.1477 116.159 25.8986L125.432 24.3213L134.587 22.1621C135.815 21.913 136.844 22.0073 137.674 22.445C138.535 22.8762 139.068 23.5929 139.271 24.5951C139.474 25.5974 139.263 26.4648 138.637 27.1975C138.044 27.9237 137.133 28.4113 135.904 28.6604L130.365 29.4806C131.069 33.7809 131.834 37.9679 132.66 42.0415Z" fill="#01D3EC"/>
<path d="M132.66 42.0415L129.629 42.6561L129.638 42.7006L129.648 42.7449L132.66 42.0415ZM135.722 55.1535L138.753 54.539L138.744 54.4944L138.734 54.4501L135.722 55.1535ZM128.351 56.6481L125.303 57.1733L125.311 57.2181L125.32 57.2627L128.351 56.6481ZM126.065 43.3788L129.112 42.8536L129.105 42.8088L129.096 42.7642L126.065 43.3788ZM123.188 30.9358L126.192 30.2013L125.45 27.1651L122.422 27.9397L123.188 30.9358ZM117.476 32.3969L118.091 35.4279L118.167 35.4124L118.243 35.3931L117.476 32.3969ZM114.341 32.1238L112.897 34.8588L112.927 34.8744L112.957 34.8894L114.341 32.1238ZM113.377 27.3713L111.025 25.3631L111.004 25.3886L110.983 25.4146L113.377 27.3713ZM116.159 25.8986L115.64 22.8497L115.592 22.8579L115.544 22.8676L116.159 25.8986ZM125.432 24.3213L125.95 27.3701L126.047 27.3537L126.142 27.3313L125.432 24.3213ZM134.587 22.1621L133.972 19.1311L133.924 19.1408L133.877 19.152L134.587 22.1621ZM137.674 22.445L136.23 25.18L136.26 25.1956L136.29 25.2107L137.674 22.445ZM138.637 27.1975L136.285 25.1894L136.263 25.2149L136.242 25.2409L138.637 27.1975ZM135.904 28.6604L136.357 31.7197L136.439 31.7077L136.519 31.6914L135.904 28.6604ZM130.365 29.4806L129.913 26.4213L126.806 26.8812L127.313 29.98L130.365 29.4806ZM129.648 42.7449L132.711 55.8569L138.734 54.4501L135.671 41.3381L129.648 42.7449ZM132.691 55.7681C132.992 57.251 132.83 57.8781 132.765 58.0268C132.75 58.0602 132.76 58.0315 132.792 58.0079C132.809 57.9948 132.74 58.0554 132.484 58.1074L133.713 64.1693C135.757 63.755 137.523 62.5789 138.43 60.5102C139.239 58.6639 139.161 56.5477 138.753 54.539L132.691 55.7681ZM132.484 58.1074C132.228 58.1593 132.141 58.1304 132.162 58.1357C132.2 58.1451 132.221 58.1676 132.194 58.1425C132.076 58.031 131.683 57.5165 131.382 56.0336L125.32 57.2627C125.727 59.2714 126.479 61.2511 127.944 62.6363C129.585 64.1884 131.67 64.5836 133.713 64.1693L132.484 58.1074ZM131.399 56.123L129.112 42.8536L123.017 43.9039L125.303 57.1733L131.399 56.123ZM129.096 42.7642C128.545 40.049 127.574 35.851 126.192 30.2013L120.184 31.6704C121.563 37.3091 122.509 41.4064 123.034 43.9933L129.096 42.7642ZM122.422 27.9397L116.71 29.4008L118.243 35.3931L123.955 33.932L122.422 27.9397ZM116.862 29.366C116.105 29.5194 115.805 29.3979 115.725 29.3582L112.957 34.8894C114.601 35.712 116.39 35.7726 118.091 35.4279L116.862 29.366ZM115.785 29.3888C115.771 29.3816 115.778 29.3834 115.795 29.3983C115.803 29.4053 115.812 29.414 115.821 29.4241C115.831 29.4341 115.839 29.4441 115.845 29.4534C115.859 29.4731 115.862 29.4817 115.857 29.4705C115.852 29.4583 115.838 29.4207 115.823 29.3493L109.761 30.5784C110.13 32.3959 111.167 33.9453 112.897 34.8588L115.785 29.3888ZM115.823 29.3493C115.809 29.278 115.807 29.2378 115.807 29.2245C115.807 29.2124 115.808 29.2212 115.803 29.2448C115.8 29.256 115.797 29.2684 115.792 29.2812C115.788 29.2941 115.783 29.3056 115.778 29.3152C115.768 29.3357 115.763 29.3399 115.772 29.3279L110.983 25.4146C109.744 26.9301 109.393 28.7609 109.761 30.5784L115.823 29.3493ZM115.729 29.3794C115.787 29.3119 116.017 29.0829 116.773 28.9295L115.544 22.8676C113.844 23.2124 112.219 23.9653 111.025 25.3631L115.729 29.3794ZM116.677 28.9474L125.95 27.3701L124.913 21.2724L115.64 22.8497L116.677 28.9474ZM126.142 27.3313L135.297 25.1721L133.877 19.152L124.722 21.3112L126.142 27.3313ZM135.201 25.193C135.967 25.0379 136.217 25.173 136.23 25.18L139.117 19.71C137.472 18.8416 135.664 18.7881 133.972 19.1311L135.201 25.193ZM136.29 25.2107C136.311 25.2215 136.309 25.2229 136.292 25.2093C136.284 25.2029 136.275 25.1943 136.265 25.1836C136.254 25.1728 136.245 25.1615 136.236 25.1501C136.228 25.1388 136.222 25.129 136.218 25.1218C136.214 25.1148 136.213 25.1116 136.213 25.1137C136.215 25.1177 136.227 25.1466 136.24 25.2097L142.302 23.9806C141.923 22.1124 140.828 20.5655 139.058 19.6794L136.29 25.2107ZM136.24 25.2097C136.253 25.2727 136.253 25.304 136.253 25.3083C136.253 25.3106 136.253 25.3073 136.254 25.2992C136.255 25.291 136.257 25.2796 136.26 25.2658C136.263 25.2521 136.268 25.2379 136.273 25.224C136.278 25.2102 136.283 25.1986 136.288 25.1896C136.298 25.1707 136.301 25.171 136.285 25.1894L140.989 29.2057C142.275 27.6998 142.68 25.8487 142.302 23.9806L136.24 25.2097ZM136.242 25.2409C136.233 25.2525 136.055 25.4743 135.29 25.6295L136.519 31.6914C138.211 31.3483 139.855 30.5949 141.032 29.1542L136.242 25.2409ZM135.451 25.6012L129.913 26.4213L130.818 32.5398L136.357 31.7197L135.451 25.6012ZM127.313 29.98C128.023 34.317 128.795 38.5424 129.629 42.6561L135.691 41.4269C134.873 37.3934 134.115 33.2449 133.418 28.9812L127.313 29.98Z" fill="#30324F" mask="url(#path-7-outside-4_663_114)"/>
<mask id="path-9-outside-5_663_114" maskUnits="userSpaceOnUse" x="144.804" y="11.789" width="43.295" height="49.3714" fill="black">
<rect fill="white" x="144.804" y="11.789" width="43.295" height="49.3714"/>
<path d="M155.295 51.6286L154.016 38.2245C153.704 35.7369 153.143 32.0504 152.332 27.1651C150.888 26.7807 150.082 25.9175 149.914 24.5755C149.799 23.659 150.187 22.7792 151.079 21.9361C152 21.0563 153.17 20.3114 154.59 19.7015C157.433 18.5144 159.935 17.7857 162.095 17.5153C166.972 16.9048 170.813 17.571 173.616 19.5141C176.415 21.4244 178.017 23.9998 178.423 27.2404C178.66 29.1389 178.307 31.0947 177.362 33.108C176.413 35.0885 175.028 36.7745 173.208 38.166C177.296 44.27 180.124 47.4733 181.691 47.7758C181.896 47.8167 182.135 47.8699 182.41 47.9353C182.68 47.968 182.849 47.9966 182.919 48.0211C182.989 48.0457 183.093 48.0825 183.232 48.1316C183.367 48.1479 183.457 48.2031 183.502 48.2972C183.563 48.5222 183.613 48.7821 183.649 49.0767C183.805 50.3205 183.478 51.4253 182.668 52.3911C181.887 53.32 180.94 53.8541 179.827 53.9934C178.059 54.2147 176.199 53.3005 174.247 51.2509C172.291 49.1686 169.872 45.7812 166.991 41.0885C166.148 41.2605 165.203 41.4121 164.156 41.5432C163.141 41.6702 162.163 41.6929 161.222 41.6112C162.041 46.03 162.553 49.0578 162.758 50.6944C163.2 54.2295 162.178 56.1528 159.69 56.4642C157.202 56.7756 155.737 55.1637 155.295 51.6286ZM160.392 34.9828C161.431 34.5203 162.638 34.203 164.013 34.0309C165.421 33.8547 166.871 33.8893 168.365 34.1345C169.203 33.6638 169.968 32.8699 170.66 31.7528C171.351 30.6356 171.627 29.5206 171.488 28.4077C171.27 26.6729 170.444 25.38 169.007 24.5292C167.571 23.6784 165.609 23.4087 163.121 23.7201C162.008 23.8594 160.756 24.2156 159.365 24.7887C159.96 30.8647 160.302 34.2627 160.392 34.9828Z"/>
</mask>
<path d="M155.295 51.6286L154.016 38.2245C153.704 35.7369 153.143 32.0504 152.332 27.1651C150.888 26.7807 150.082 25.9175 149.914 24.5755C149.799 23.659 150.187 22.7792 151.079 21.9361C152 21.0563 153.17 20.3114 154.59 19.7015C157.433 18.5144 159.935 17.7857 162.095 17.5153C166.972 16.9048 170.813 17.571 173.616 19.5141C176.415 21.4244 178.017 23.9998 178.423 27.2404C178.66 29.1389 178.307 31.0947 177.362 33.108C176.413 35.0885 175.028 36.7745 173.208 38.166C177.296 44.27 180.124 47.4733 181.691 47.7758C181.896 47.8167 182.135 47.8699 182.41 47.9353C182.68 47.968 182.849 47.9966 182.919 48.0211C182.989 48.0457 183.093 48.0825 183.232 48.1316C183.367 48.1479 183.457 48.2031 183.502 48.2972C183.563 48.5222 183.613 48.7821 183.649 49.0767C183.805 50.3205 183.478 51.4253 182.668 52.3911C181.887 53.32 180.94 53.8541 179.827 53.9934C178.059 54.2147 176.199 53.3005 174.247 51.2509C172.291 49.1686 169.872 45.7812 166.991 41.0885C166.148 41.2605 165.203 41.4121 164.156 41.5432C163.141 41.6702 162.163 41.6929 161.222 41.6112C162.041 46.03 162.553 49.0578 162.758 50.6944C163.2 54.2295 162.178 56.1528 159.69 56.4642C157.202 56.7756 155.737 55.1637 155.295 51.6286ZM160.392 34.9828C161.431 34.5203 162.638 34.203 164.013 34.0309C165.421 33.8547 166.871 33.8893 168.365 34.1345C169.203 33.6638 169.968 32.8699 170.66 31.7528C171.351 30.6356 171.627 29.5206 171.488 28.4077C171.27 26.6729 170.444 25.38 169.007 24.5292C167.571 23.6784 165.609 23.4087 163.121 23.7201C162.008 23.8594 160.756 24.2156 159.365 24.7887C159.96 30.8647 160.302 34.2627 160.392 34.9828Z" fill="#01D3EC"/>
<path d="M155.295 51.6286L152.216 51.9223L152.22 51.9676L152.226 52.0127L155.295 51.6286ZM154.016 38.2245L157.094 37.9308L157.09 37.8855L157.084 37.8404L154.016 38.2245ZM152.332 27.1651L155.383 26.6586L155.056 24.6897L153.128 24.1765L152.332 27.1651ZM151.079 21.9361L153.204 24.1836L153.21 24.1777L153.216 24.1717L151.079 21.9361ZM154.59 19.7015L153.398 16.8476L153.383 16.8537L153.369 16.86L154.59 19.7015ZM173.616 19.5141L171.854 22.0558L171.863 22.0622L171.872 22.0685L173.616 19.5141ZM177.362 33.108L180.151 34.4443L180.156 34.4331L180.162 34.4219L177.362 33.108ZM173.208 38.166L171.33 35.7089L169.021 37.4732L170.638 39.8871L173.208 38.166ZM181.691 47.7758L182.297 44.7432L182.287 44.7412L182.278 44.7393L181.691 47.7758ZM182.41 47.9353L181.692 50.9435L181.863 50.9843L182.038 51.0055L182.41 47.9353ZM182.919 48.0211L181.89 50.9376L181.89 50.9376L182.919 48.0211ZM183.232 48.1316L182.203 51.048L182.523 51.161L182.86 51.2018L183.232 48.1316ZM183.502 48.2972L186.486 47.483L186.412 47.2139L186.292 46.9624L183.502 48.2972ZM182.668 52.3911L185.035 54.3818L185.038 54.3784L182.668 52.3911ZM174.247 51.2509L171.993 53.3684L172 53.3762L172.008 53.3838L174.247 51.2509ZM166.991 41.0885L169.626 39.4703L168.494 37.6255L166.373 38.0583L166.991 41.0885ZM161.222 41.6112L161.489 38.5301L157.44 38.1788L158.181 42.1749L161.222 41.6112ZM160.392 34.9828L157.323 35.367L157.841 39.5033L161.65 37.8082L160.392 34.9828ZM168.365 34.1345L167.863 37.1863L168.933 37.3619L169.878 36.8315L168.365 34.1345ZM170.66 31.7528L168.03 30.1254L168.03 30.1254L170.66 31.7528ZM169.007 24.5292L170.584 21.8684L170.584 21.8684L169.007 24.5292ZM159.365 24.7887L158.187 21.9292L156.064 22.804L156.287 25.0897L159.365 24.7887ZM158.373 51.3349L157.094 37.9308L150.937 38.5183L152.216 51.9223L158.373 51.3349ZM157.084 37.8404C156.765 35.2894 156.196 31.5535 155.383 26.6586L149.281 27.6715C150.091 32.5472 150.644 36.1843 150.947 38.6087L157.084 37.8404ZM153.128 24.1765C152.973 24.1354 152.895 24.097 152.868 24.0822C152.845 24.0692 152.866 24.0775 152.904 24.1185C152.922 24.1377 152.94 24.1598 152.955 24.1835C152.971 24.2071 152.982 24.2276 152.988 24.2425C153.002 24.2734 152.991 24.2641 152.982 24.1913L146.845 24.9596C146.998 26.1796 147.474 27.3656 148.384 28.3403C149.276 29.2955 150.401 29.8515 151.537 30.1537L153.128 24.1765ZM152.982 24.1913C152.988 24.24 152.989 24.2994 152.979 24.361C152.97 24.4219 152.955 24.4624 152.948 24.4777C152.937 24.5023 152.978 24.3975 153.204 24.1836L148.955 19.6887C147.604 20.966 146.57 22.7614 146.845 24.9596L152.982 24.1913ZM153.216 24.1717C153.82 23.5948 154.659 23.0374 155.81 22.543L153.369 16.86C151.68 17.5854 150.18 18.5177 148.942 19.7006L153.216 24.1717ZM155.781 22.5554C158.464 21.4353 160.685 20.8085 162.479 20.5839L161.711 14.4466C159.185 14.7628 156.402 15.5935 153.398 16.8476L155.781 22.5554ZM162.479 20.5839C166.93 20.0268 169.904 20.7045 171.854 22.0558L175.378 16.9724C171.721 14.4376 167.015 13.7827 161.711 14.4466L162.479 20.5839ZM171.872 22.0685C173.97 23.5003 175.063 25.301 175.354 27.6245L181.491 26.8562C180.971 22.6987 178.859 19.3485 175.359 16.9597L171.872 22.0685ZM175.354 27.6245C175.508 28.8539 175.3 30.2225 174.562 31.7941L180.162 34.4219C181.314 31.967 181.813 29.4238 181.491 26.8562L175.354 27.6245ZM174.573 31.7717C173.844 33.2926 172.78 34.6006 171.33 35.7089L175.086 40.6231C177.277 38.9484 178.982 36.8844 180.151 34.4443L174.573 31.7717ZM170.638 39.8871C172.713 42.9846 174.53 45.4414 176.077 47.1932C176.848 48.0671 177.609 48.8307 178.351 49.4227C179.036 49.9688 179.979 50.595 181.105 50.8124L182.278 44.7393C182.62 44.8054 182.622 44.9178 182.208 44.5874C181.852 44.303 181.356 43.8275 180.714 43.0998C179.432 41.6483 177.791 39.4514 175.777 36.4449L170.638 39.8871ZM181.085 50.8085C181.242 50.8399 181.443 50.8841 181.692 50.9435L183.127 44.9271C182.828 44.8557 182.55 44.7936 182.297 44.7432L181.085 50.8085ZM182.038 51.0055C182.091 51.0119 182.133 51.0175 182.166 51.0221C182.2 51.0268 182.219 51.0298 182.226 51.0309C182.235 51.0324 182.216 51.0295 182.178 51.0211C182.158 51.0166 182.125 51.0089 182.082 50.9974C182.041 50.9865 181.974 50.9672 181.89 50.9376L183.948 45.1046C183.49 44.9432 182.942 44.8846 182.781 44.8651L182.038 51.0055ZM181.89 50.9376C181.96 50.9622 182.064 50.999 182.203 51.048L184.261 45.2151C184.122 45.166 184.017 45.1292 183.948 45.1046L181.89 50.9376ZM182.86 51.2018C182.609 51.1713 182.21 51.0831 181.784 50.8214C181.327 50.5415 180.951 50.1298 180.712 49.6321L186.292 46.9624C185.653 45.6283 184.429 45.1612 183.604 45.0613L182.86 51.2018ZM180.519 49.1114C180.533 49.1633 180.557 49.2743 180.581 49.4608L186.718 48.6925C186.668 48.2898 186.594 47.8812 186.486 47.483L180.519 49.1114ZM180.581 49.4608C180.629 49.846 180.559 50.0927 180.298 50.4037L185.038 54.3784C186.397 52.7579 186.981 50.795 186.718 48.6925L180.581 49.4608ZM180.301 50.4004C179.976 50.7866 179.716 50.8906 179.443 50.9248L180.211 57.0621C182.163 56.8177 183.797 55.8534 185.035 54.3818L180.301 50.4004ZM179.443 50.9248C179.112 50.9662 178.166 50.8817 176.487 49.118L172.008 53.3838C174.232 55.7194 177.007 57.4632 180.211 57.0621L179.443 50.9248ZM176.501 49.1335C174.766 47.2864 172.479 44.1163 169.626 39.4703L164.355 42.7067C167.265 47.446 169.816 51.0509 171.993 53.3684L176.501 49.1335ZM166.373 38.0583C165.622 38.2114 164.757 38.3511 163.771 38.4745L164.54 44.6119C165.649 44.473 166.674 44.3096 167.609 44.1187L166.373 38.0583ZM163.771 38.4745C162.955 38.5767 162.196 38.5915 161.489 38.5301L160.954 44.6922C162.13 44.7942 163.326 44.7637 164.54 44.6119L163.771 38.4745ZM158.181 42.1749C159.002 46.6021 159.497 49.5448 159.689 51.0785L165.826 50.3103C165.609 48.5708 165.08 45.458 164.263 41.0475L158.181 42.1749ZM159.689 51.0785C159.877 52.5799 159.668 53.193 159.592 53.3363C159.575 53.3686 159.587 53.3407 159.62 53.3196C159.639 53.3078 159.565 53.3631 159.306 53.3955L160.074 59.5329C162.143 59.2739 163.993 58.2345 165.053 56.2401C166 54.4601 166.081 52.344 165.826 50.3103L159.689 51.0785ZM159.306 53.3955C159.047 53.428 158.962 53.3925 158.982 53.3994C159.02 53.4117 159.039 53.4357 159.014 53.4087C158.905 53.2886 158.551 52.7459 158.363 51.2445L152.226 52.0127C152.481 54.0464 153.081 56.0772 154.437 57.569C155.956 59.2405 158.005 59.7918 160.074 59.5329L159.306 53.3955ZM161.65 37.8082C162.359 37.4927 163.261 37.2418 164.397 37.0996L163.629 30.9622C162.016 31.1641 160.504 31.5479 159.135 32.1574L161.65 37.8082ZM164.397 37.0996C165.491 36.9626 166.643 36.9859 167.863 37.1863L168.866 31.0827C167.099 30.7926 165.35 30.7468 163.629 30.9622L164.397 37.0996ZM169.878 36.8315C171.31 36.0278 172.419 34.7869 173.289 33.3801L168.03 30.1254C167.518 30.9529 167.096 31.2999 166.851 31.4375L169.878 36.8315ZM173.289 33.3801C174.286 31.7699 174.798 29.9534 174.556 28.0236L168.419 28.7918C168.456 29.0877 168.416 29.5013 168.03 30.1254L173.289 33.3801ZM174.556 28.0236C174.227 25.3921 172.887 23.2327 170.584 21.8684L167.431 27.19C168.001 27.5273 168.314 27.9536 168.419 28.7918L174.556 28.0236ZM170.584 21.8684C168.326 20.5312 165.58 20.2956 162.737 20.6514L163.505 26.7888C165.638 26.5218 166.816 26.8256 167.431 27.19L170.584 21.8684ZM162.737 20.6514C161.277 20.8342 159.752 21.2846 158.187 21.9292L160.543 27.6481C161.761 27.1466 162.74 26.8846 163.505 26.7888L162.737 20.6514ZM156.287 25.0897C156.879 31.1326 157.227 34.5928 157.323 35.367L163.461 34.5987C163.377 33.9326 163.041 30.5967 162.443 24.4876L156.287 25.0897Z" fill="#30324F" mask="url(#path-9-outside-5_663_114)"/>
<mask id="path-11-outside-6_663_114" maskUnits="userSpaceOnUse" x="184.592" y="10.2567" width="30.4154" height="46.4618" fill="black">
<rect fill="white" x="184.592" y="10.2567" width="30.4154" height="46.4618"/>
<path d="M192.961 14.9248L199.005 14.8917L205.017 14.2656C206.236 14.1989 207.224 14.4422 207.981 14.9955C208.771 15.547 209.194 16.3333 209.25 17.3544C209.304 18.3425 208.968 19.1538 208.243 19.7881C207.551 20.4206 206.595 20.7702 205.376 20.8369L203.046 20.8156C203.082 25.7032 203.194 29.8598 203.381 33.2854C203.567 36.6781 203.908 40.8056 204.405 45.668C205.584 45.4714 206.354 45.3632 206.717 45.3433C207.935 45.2767 208.923 45.52 209.68 46.0733C210.47 46.6247 210.893 47.411 210.949 48.4321C211.003 49.4203 210.667 50.2315 209.942 50.8659C209.25 51.4984 208.295 51.848 207.076 51.9146L201.032 51.9478L195.023 52.6233C193.771 52.6918 192.75 52.4503 191.96 51.8988C191.203 51.3455 190.797 50.5583 190.741 49.5372C190.685 48.5161 191.004 47.7058 191.698 47.1062C192.424 46.4719 193.412 46.1205 194.664 46.052L196.997 46.1227C196.961 41.2351 196.849 37.0785 196.662 33.6529C196.474 30.2272 196.132 26.0833 195.635 21.2209C194.652 21.3738 193.7 21.4754 192.777 21.5259C191.888 21.5745 191.049 21.3396 190.261 20.821C189.504 20.2677 189.097 19.4806 189.042 18.4595C188.986 17.4384 189.304 16.6115 189.996 15.979C190.721 15.3447 191.71 14.9933 192.961 14.9248Z"/>
</mask>
<path d="M192.961 14.9248L199.005 14.8917L205.017 14.2656C206.236 14.1989 207.224 14.4422 207.981 14.9955C208.771 15.547 209.194 16.3333 209.25 17.3544C209.304 18.3425 208.968 19.1538 208.243 19.7881C207.551 20.4206 206.595 20.7702 205.376 20.8369L203.046 20.8156C203.082 25.7032 203.194 29.8598 203.381 33.2854C203.567 36.6781 203.908 40.8056 204.405 45.668C205.584 45.4714 206.354 45.3632 206.717 45.3433C207.935 45.2767 208.923 45.52 209.68 46.0733C210.47 46.6247 210.893 47.411 210.949 48.4321C211.003 49.4203 210.667 50.2315 209.942 50.8659C209.25 51.4984 208.295 51.848 207.076 51.9146L201.032 51.9478L195.023 52.6233C193.771 52.6918 192.75 52.4503 191.96 51.8988C191.203 51.3455 190.797 50.5583 190.741 49.5372C190.685 48.5161 191.004 47.7058 191.698 47.1062C192.424 46.4719 193.412 46.1205 194.664 46.052L196.997 46.1227C196.961 41.2351 196.849 37.0785 196.662 33.6529C196.474 30.2272 196.132 26.0833 195.635 21.2209C194.652 21.3738 193.7 21.4754 192.777 21.5259C191.888 21.5745 191.049 21.3396 190.261 20.821C189.504 20.2677 189.097 19.4806 189.042 18.4595C188.986 17.4384 189.304 16.6115 189.996 15.979C190.721 15.3447 191.71 14.9933 192.961 14.9248Z" fill="#01D3EC"/>
<path d="M192.961 14.9248L192.944 11.8323L192.868 11.8327L192.793 11.8368L192.961 14.9248ZM199.005 14.8917L199.022 17.9842L199.174 17.9834L199.326 17.9677L199.005 14.8917ZM205.017 14.2656L204.848 11.1776L204.772 11.1817L204.697 11.1896L205.017 14.2656ZM207.981 14.9955L206.156 17.4924L206.183 17.5122L206.211 17.5314L207.981 14.9955ZM208.243 19.7881L206.207 17.4604L206.181 17.4824L206.157 17.5051L208.243 19.7881ZM205.376 20.8369L205.348 23.9294L205.447 23.9303L205.545 23.9249L205.376 20.8369ZM203.046 20.8156L203.074 17.7231L199.93 17.6945L199.954 20.8384L203.046 20.8156ZM204.405 45.668L201.329 45.9825L201.664 49.2606L204.914 48.7184L204.405 45.668ZM209.68 46.0733L207.855 48.5702L207.883 48.59L207.91 48.6092L209.68 46.0733ZM209.942 50.8659L207.906 48.5381L207.881 48.5602L207.856 48.5828L209.942 50.8659ZM207.076 51.9146L207.093 55.0072L207.169 55.0068L207.245 55.0026L207.076 51.9146ZM201.032 51.9478L201.015 48.8552L200.85 48.8561L200.686 48.8746L201.032 51.9478ZM195.023 52.6233L195.192 55.7113L195.28 55.7065L195.368 55.6966L195.023 52.6233ZM191.96 51.8988L190.136 54.3957L190.163 54.4155L190.19 54.4347L191.96 51.8988ZM191.698 47.1062L193.72 49.4464L193.727 49.4402L193.734 49.4339L191.698 47.1062ZM194.664 46.052L194.757 42.9608L194.626 42.9568L194.495 42.964L194.664 46.052ZM196.997 46.1227L196.903 49.2139L200.113 49.3111L200.089 46.0999L196.997 46.1227ZM195.635 21.2209L198.711 20.9064L198.38 17.6642L195.16 18.165L195.635 21.2209ZM190.261 20.821L188.436 23.3179L188.498 23.3629L188.561 23.4047L190.261 20.821ZM189.996 15.979L187.96 13.6513L187.935 13.6733L187.91 13.696L189.996 15.979ZM192.978 18.0174L199.022 17.9842L198.988 11.7991L192.944 11.8323L192.978 18.0174ZM199.326 17.9677L205.337 17.3416L204.697 11.1896L198.685 11.8157L199.326 17.9677ZM205.186 17.3536C205.909 17.314 206.13 17.4732 206.156 17.4924L209.805 12.4986C208.318 11.4113 206.562 11.0838 204.848 11.1776L205.186 17.3536ZM206.211 17.5314C206.23 17.5453 206.228 17.5463 206.213 17.5305C206.207 17.523 206.198 17.5131 206.19 17.501C206.181 17.4889 206.174 17.4763 206.167 17.4638C206.16 17.4514 206.155 17.4408 206.152 17.4331C206.149 17.4255 206.149 17.4223 206.149 17.4245C206.15 17.4286 206.158 17.459 206.161 17.5232L212.338 17.1855C212.233 15.2822 211.375 13.593 209.751 12.4596L206.211 17.5314ZM206.161 17.5232C206.164 17.5726 206.161 17.5908 206.162 17.5843C206.163 17.5766 206.168 17.5533 206.181 17.5218C206.194 17.4901 206.209 17.465 206.22 17.4496C206.231 17.435 206.23 17.4396 206.207 17.4604L210.279 22.1159C211.742 20.8357 212.442 19.0932 212.338 17.1855L206.161 17.5232ZM206.157 17.5051C206.133 17.527 205.931 17.7093 205.207 17.7489L205.545 23.9249C207.259 23.8312 208.969 23.3142 210.329 22.0712L206.157 17.5051ZM205.405 17.7444L203.074 17.7231L203.018 23.9081L205.348 23.9294L205.405 17.7444ZM199.954 20.8384C199.99 25.7561 200.102 29.9644 200.293 33.4543L206.469 33.1165C206.285 29.7551 206.174 25.6502 206.139 20.7928L199.954 20.8384ZM200.293 33.4543C200.482 36.9116 200.828 41.0907 201.329 45.9825L207.482 45.3534C206.988 40.5205 206.651 36.4447 206.469 33.1165L200.293 33.4543ZM204.914 48.7184C205.489 48.6225 205.948 48.5509 206.297 48.5019C206.471 48.4775 206.609 48.4598 206.716 48.4478C206.768 48.4419 206.809 48.4378 206.84 48.435C206.855 48.4337 206.866 48.4327 206.874 48.4321C206.882 48.4315 206.886 48.4313 206.885 48.4314L206.548 42.2553C205.982 42.2863 205.035 42.4276 203.896 42.6175L204.914 48.7184ZM206.885 48.4314C207.609 48.3918 207.829 48.551 207.855 48.5702L211.505 43.5764C210.017 42.489 208.262 42.1616 206.548 42.2553L206.885 48.4314ZM207.91 48.6092C207.93 48.6231 207.927 48.624 207.913 48.6082C207.906 48.6008 207.898 48.5909 207.889 48.5788C207.881 48.5667 207.873 48.5541 207.866 48.5416C207.86 48.5291 207.855 48.5186 207.852 48.5109C207.849 48.5033 207.848 48.5001 207.849 48.5022C207.85 48.5064 207.857 48.5368 207.861 48.601L214.037 48.2633C213.933 46.36 213.074 44.6708 211.45 43.5374L207.91 48.6092ZM207.861 48.601C207.864 48.6504 207.86 48.6686 207.861 48.662C207.862 48.6543 207.867 48.6311 207.88 48.5996C207.893 48.5679 207.908 48.5428 207.92 48.5274C207.93 48.5128 207.93 48.5174 207.906 48.5381L211.978 53.1936C213.442 51.9135 214.141 50.171 214.037 48.2633L207.861 48.601ZM207.856 48.5828C207.832 48.6048 207.631 48.7871 206.907 48.8266L207.245 55.0026C208.959 54.9089 210.668 54.392 212.028 53.1489L207.856 48.5828ZM207.059 48.8221L201.015 48.8552L201.049 55.0404L207.093 55.0072L207.059 48.8221ZM200.686 48.8746L194.677 49.55L195.368 55.6966L201.377 55.0211L200.686 48.8746ZM194.854 49.5353C194.083 49.5775 193.803 49.4137 193.731 49.3629L190.19 54.4347C191.697 55.4868 193.459 55.8061 195.192 55.7113L194.854 49.5353ZM193.785 49.4019C193.773 49.3927 193.779 49.3955 193.794 49.4127C193.801 49.4209 193.809 49.4307 193.816 49.442C193.824 49.4533 193.83 49.4644 193.836 49.4746C193.847 49.4961 193.848 49.505 193.845 49.4932C193.842 49.4803 193.833 49.441 193.829 49.3684L187.653 49.7061C187.754 51.5578 188.556 53.2411 190.136 54.3957L193.785 49.4019ZM193.829 49.3684C193.825 49.2954 193.83 49.2585 193.831 49.2509C193.832 49.2447 193.829 49.2628 193.816 49.2968C193.802 49.3315 193.783 49.3678 193.76 49.4001C193.737 49.4317 193.72 49.4466 193.72 49.4464L189.677 44.7659C188.168 46.0696 187.552 47.8544 187.653 49.7061L193.829 49.3684ZM193.734 49.4339C193.801 49.3755 194.062 49.1822 194.832 49.14L194.495 42.964C192.762 43.0587 191.046 43.5683 189.662 44.7784L193.734 49.4339ZM194.57 49.1432L196.903 49.2139L197.09 43.0315L194.757 42.9608L194.57 49.1432ZM200.089 46.0999C200.053 41.1822 199.94 36.9739 199.75 33.484L193.574 33.8218C193.757 37.1832 193.868 41.2881 193.904 46.1455L200.089 46.0999ZM199.75 33.484C199.559 29.9942 199.212 25.7987 198.711 20.9064L192.558 21.5355C193.052 26.3678 193.39 30.4603 193.574 33.8218L199.75 33.484ZM195.16 18.165C194.271 18.3033 193.421 18.3934 192.608 18.4379L192.946 24.6139C193.978 24.5574 195.033 24.4443 196.11 24.2768L195.16 18.165ZM192.608 18.4379C192.42 18.4481 192.231 18.4151 191.961 18.2373L188.561 23.4047C189.867 24.264 191.355 24.7009 192.946 24.6139L192.608 18.4379ZM192.086 18.3241C192.073 18.315 192.079 18.3177 192.094 18.335C192.101 18.3431 192.109 18.353 192.117 18.3643C192.124 18.3756 192.131 18.3866 192.136 18.3968C192.147 18.4183 192.148 18.4272 192.145 18.4154C192.142 18.4026 192.134 18.3633 192.13 18.2906L185.954 18.6283C186.055 20.4801 186.856 22.1633 188.436 23.3179L192.086 18.3241ZM192.13 18.2906C192.126 18.2179 192.13 18.1779 192.132 18.1648C192.133 18.1527 192.133 18.1617 192.125 18.1843C192.12 18.1949 192.115 18.2067 192.109 18.2187C192.102 18.2308 192.096 18.2415 192.09 18.2503C192.077 18.2691 192.071 18.2725 192.082 18.2621L187.91 13.696C186.465 15.016 185.852 16.7766 185.954 18.6283L192.13 18.2906ZM192.032 18.3068C192.099 18.2483 192.359 18.055 193.13 18.0129L192.793 11.8368C191.06 11.9316 189.343 12.4411 187.96 13.6513L192.032 18.3068Z" fill="#30324F" mask="url(#path-11-outside-6_663_114)"/>
<mask id="path-13-outside-7_663_114" maskUnits="userSpaceOnUse" x="216.865" y="9.99858" width="37.7539" height="45.6178" fill="black">
<rect fill="white" x="216.865" y="9.99858" width="37.7539" height="45.6178"/>
<path d="M250.512 40.6223C250.452 44.1845 248.904 46.9957 245.867 49.056C242.863 51.1168 239.118 52.1094 234.632 52.0337C230.179 51.9586 226.641 51.437 224.018 50.4689C221.429 49.4685 220.146 48.2426 220.171 46.7913C220.197 45.2411 220.938 44.3463 222.393 44.1069C222.548 40.8103 222.663 36.9026 222.74 32.3839C222.816 27.8322 222.826 24.3021 222.77 21.7937C221.428 21.1442 220.767 20.2587 220.786 19.1373C220.805 18.0159 221.348 17.0848 222.416 16.3439C223.518 15.5707 224.848 14.9828 226.405 14.5802C229.52 13.7749 232.265 13.3923 234.64 13.4324C237.015 13.4724 239.12 13.8379 240.956 14.5287C242.825 15.1871 244.279 16.053 245.317 17.1263C247.327 19.2057 248.313 21.3999 248.274 23.7087C248.226 26.5453 246.914 29.0141 244.338 31.1152C246.168 32.1688 247.662 33.5467 248.821 35.2489C249.981 36.9511 250.544 38.7422 250.512 40.6223ZM229.548 45.3659C230.797 45.6179 232.56 45.7631 234.836 45.8015C237.145 45.8405 239.148 45.3959 240.847 44.4678C242.546 43.5067 243.411 42.0861 243.443 40.206C243.466 38.8207 242.793 37.6381 241.424 36.6582C240.088 35.6789 238.614 35.0107 237.004 34.6536C235.248 35.0859 233.776 35.292 232.589 35.2719C231.434 35.2525 230.396 35.202 229.473 35.1204C229.443 40.8606 229.467 44.2758 229.548 45.3659ZM241.544 23.6447C241.561 22.6552 240.982 21.7546 239.808 20.943C238.667 20.1319 237.107 19.7096 235.128 19.6762C233.182 19.6434 231.414 19.8115 229.824 20.1806L229.687 28.344C230.942 28.2332 232.081 28.1864 233.104 28.2037C234.159 28.2215 235.295 28.3726 236.511 28.6571C237.536 28.5424 238.616 28.0493 239.753 27.1776C240.923 26.2736 241.52 25.0959 241.544 23.6447Z"/>
</mask>
<path d="M250.512 40.6223C250.452 44.1845 248.904 46.9957 245.867 49.056C242.863 51.1168 239.118 52.1094 234.632 52.0337C230.179 51.9586 226.641 51.437 224.018 50.4689C221.429 49.4685 220.146 48.2426 220.171 46.7913C220.197 45.2411 220.938 44.3463 222.393 44.1069C222.548 40.8103 222.663 36.9026 222.74 32.3839C222.816 27.8322 222.826 24.3021 222.77 21.7937C221.428 21.1442 220.767 20.2587 220.786 19.1373C220.805 18.0159 221.348 17.0848 222.416 16.3439C223.518 15.5707 224.848 14.9828 226.405 14.5802C229.52 13.7749 232.265 13.3923 234.64 13.4324C237.015 13.4724 239.12 13.8379 240.956 14.5287C242.825 15.1871 244.279 16.053 245.317 17.1263C247.327 19.2057 248.313 21.3999 248.274 23.7087C248.226 26.5453 246.914 29.0141 244.338 31.1152C246.168 32.1688 247.662 33.5467 248.821 35.2489C249.981 36.9511 250.544 38.7422 250.512 40.6223ZM229.548 45.3659C230.797 45.6179 232.56 45.7631 234.836 45.8015C237.145 45.8405 239.148 45.3959 240.847 44.4678C242.546 43.5067 243.411 42.0861 243.443 40.206C243.466 38.8207 242.793 37.6381 241.424 36.6582C240.088 35.6789 238.614 35.0107 237.004 34.6536C235.248 35.0859 233.776 35.292 232.589 35.2719C231.434 35.2525 230.396 35.202 229.473 35.1204C229.443 40.8606 229.467 44.2758 229.548 45.3659ZM241.544 23.6447C241.561 22.6552 240.982 21.7546 239.808 20.943C238.667 20.1319 237.107 19.7096 235.128 19.6762C233.182 19.6434 231.414 19.8115 229.824 20.1806L229.687 28.344C230.942 28.2332 232.081 28.1864 233.104 28.2037C234.159 28.2215 235.295 28.3726 236.511 28.6571C237.536 28.5424 238.616 28.0493 239.753 27.1776C240.923 26.2736 241.52 25.0959 241.544 23.6447Z" fill="#FF5E28"/>
<path d="M245.867 49.056L244.13 46.4967L244.124 46.5012L244.117 46.5058L245.867 49.056ZM224.018 50.4689L222.904 53.3537L222.925 53.3622L222.947 53.3703L224.018 50.4689ZM222.393 44.1069L222.895 47.1586L225.365 46.7524L225.483 44.2518L222.393 44.1069ZM222.77 21.7937L225.862 21.7239L225.819 19.8338L224.117 19.0101L222.77 21.7937ZM222.416 16.3439L224.179 18.8853L224.186 18.8804L224.193 18.8754L222.416 16.3439ZM226.405 14.5802L227.179 17.5743L227.179 17.5743L226.405 14.5802ZM240.956 14.5287L239.867 17.4232L239.898 17.4348L239.929 17.4457L240.956 14.5287ZM244.338 31.1152L242.383 28.7186L238.905 31.5555L242.795 33.7952L244.338 31.1152ZM248.821 35.2489L251.378 33.5083L251.378 33.5083L248.821 35.2489ZM229.548 45.3659L226.464 45.5939L226.637 47.9336L228.937 48.3975L229.548 45.3659ZM240.847 44.4678L242.33 47.1816L242.35 47.1707L242.369 47.1595L240.847 44.4678ZM241.424 36.6582L239.596 39.1526L239.61 39.163L239.624 39.1732L241.424 36.6582ZM237.004 34.6536L237.673 31.6343L236.967 31.4777L236.264 31.6506L237.004 34.6536ZM229.473 35.1204L229.746 32.0398L226.399 31.7439L226.381 35.1038L229.473 35.1204ZM239.808 20.943L238.017 23.4637L238.033 23.4754L238.05 23.4869L239.808 20.943ZM229.824 20.1806L229.125 17.1681L226.773 17.7141L226.732 20.1284L229.824 20.1806ZM229.687 28.344L226.595 28.2918L226.537 31.7266L229.959 31.4247L229.687 28.344ZM236.511 28.6571L235.806 31.6684L236.325 31.7898L236.855 31.7305L236.511 28.6571ZM239.753 27.1776L241.635 29.6316L241.644 29.6248L239.753 27.1776ZM247.42 40.5701C247.378 43.0902 246.364 44.9813 244.13 46.4967L247.603 51.6153C251.443 49.0101 253.527 45.2788 253.605 40.6744L247.42 40.5701ZM244.117 46.5058C241.755 48.1264 238.678 49.0089 234.684 48.9415L234.58 55.1259C239.557 55.2099 243.97 54.1073 247.616 51.6062L244.117 46.5058ZM234.684 48.9415C230.398 48.8692 227.251 48.3654 225.089 47.5676L222.947 53.3703C226.032 54.5086 229.96 55.048 234.58 55.1259L234.684 48.9415ZM225.133 47.5841C224.027 47.1569 223.479 46.7813 223.251 46.5635C223.152 46.4692 223.163 46.4506 223.196 46.5222C223.236 46.6066 223.265 46.7249 223.263 46.8435L217.078 46.7391C217.048 48.5142 217.862 49.9687 218.977 51.0348C220.032 52.043 221.42 52.7805 222.904 53.3537L225.133 47.5841ZM223.263 46.8435C223.265 46.6925 223.284 46.648 223.275 46.6773C223.263 46.7147 223.223 46.8146 223.128 46.93C223.031 47.0472 222.926 47.1205 222.854 47.1573C222.792 47.1897 222.791 47.1757 222.895 47.1586L221.892 41.0553C220.632 41.2624 219.328 41.8211 218.364 42.9851C217.416 44.1303 217.099 45.497 217.078 46.7391L223.263 46.8435ZM225.483 44.2518C225.639 40.9154 225.755 36.9753 225.832 32.436L219.647 32.3317C219.572 36.8299 219.457 40.7052 219.304 43.9621L225.483 44.2518ZM225.832 32.436C225.909 27.8706 225.92 24.2931 225.862 21.7239L219.678 21.8635C219.733 24.3111 219.724 27.7937 219.647 32.3317L225.832 32.436ZM224.117 19.0101C223.937 18.923 223.83 18.8516 223.772 18.8075C223.716 18.7647 223.718 18.7557 223.745 18.7917C223.775 18.8314 223.815 18.8999 223.844 18.9912C223.873 19.082 223.878 19.1542 223.878 19.1895L217.693 19.0851C217.647 21.8197 219.42 23.6081 221.422 24.5773L224.117 19.0101ZM223.878 19.1895C223.878 19.1538 223.882 19.1433 223.881 19.1493C223.879 19.156 223.876 19.1604 223.878 19.1571C223.881 19.1531 223.94 19.0506 224.179 18.8853L220.654 13.8026C218.917 15.0074 217.732 16.7998 217.693 19.0851L223.878 19.1895ZM224.193 18.8754C224.938 18.3524 225.913 17.9018 227.179 17.5743L225.631 11.586C223.783 12.0638 222.098 12.789 220.64 13.8125L224.193 18.8754ZM227.179 17.5743C230.113 16.8159 232.57 16.4905 234.588 16.5246L234.692 10.3402C231.96 10.2941 228.927 10.7339 225.631 11.586L227.179 17.5743ZM234.588 16.5246C236.68 16.5599 238.424 16.8804 239.867 17.4232L242.045 11.6342C239.816 10.7954 237.349 10.385 234.692 10.3402L234.588 16.5246ZM239.929 17.4457C241.487 17.9947 242.48 18.6418 243.093 19.2759L247.54 14.9766C246.078 13.4641 244.164 12.3796 241.983 11.6117L239.929 17.4457ZM243.093 19.2759C244.686 20.9229 245.204 22.3633 245.182 23.6565L251.366 23.7609C251.422 20.4365 249.969 17.4886 247.54 14.9766L243.093 19.2759ZM245.182 23.6565C245.152 25.422 244.388 27.0837 242.383 28.7186L246.293 33.5117C249.44 30.9445 251.3 27.6685 251.366 23.7609L245.182 23.6565ZM242.795 33.7952C244.231 34.6222 245.375 35.6828 246.265 36.9895L251.378 33.5083C249.949 31.4106 248.105 29.7154 245.881 28.4351L242.795 33.7952ZM246.265 36.9895C247.101 38.2165 247.44 39.3896 247.42 40.5701L253.605 40.6744C253.648 38.0948 252.86 35.6857 251.378 33.5083L246.265 36.9895ZM228.937 48.3975C230.46 48.7048 232.442 48.8542 234.784 48.8937L234.888 42.7094C232.679 42.6721 231.135 42.5311 230.159 42.3343L228.937 48.3975ZM234.784 48.8937C237.525 48.94 240.078 48.4123 242.33 47.1816L239.364 41.754C238.219 42.3796 236.765 42.741 234.888 42.7094L234.784 48.8937ZM242.369 47.1595C244.978 45.684 246.484 43.2843 246.535 40.2582L240.35 40.1539C240.338 40.8879 240.113 41.3294 239.324 41.7761L242.369 47.1595ZM246.535 40.2582C246.579 37.6313 245.217 35.57 243.224 34.1433L239.624 39.1732C240.369 39.7063 240.353 40.0102 240.35 40.1539L246.535 40.2582ZM243.252 34.1639C241.572 32.9322 239.704 32.0846 237.673 31.6343L236.334 37.6729C237.525 37.9368 238.604 38.4256 239.596 39.1526L243.252 34.1639ZM236.264 31.6506C234.647 32.0487 233.461 32.1936 232.641 32.1798L232.537 38.3641C234.091 38.3904 235.848 38.1231 237.743 37.6566L236.264 31.6506ZM232.641 32.1798C231.543 32.1612 230.58 32.1135 229.746 32.0398L229.201 38.201C230.212 38.2904 231.326 38.3437 232.537 38.3641L232.641 32.1798ZM226.381 35.1038C226.35 40.7767 226.372 44.3492 226.464 45.5939L232.632 45.1379C232.563 44.2023 232.535 40.9445 232.566 35.137L226.381 35.1038ZM244.637 23.6968C244.678 21.2631 243.187 19.519 241.567 18.399L238.05 23.4869C238.407 23.7337 238.513 23.886 238.521 23.8989C238.522 23.8999 238.501 23.8664 238.481 23.8006C238.461 23.7329 238.451 23.6598 238.452 23.5925L244.637 23.6968ZM241.6 18.4222C239.78 17.1281 237.535 16.6238 235.181 16.5841L235.076 22.7684C236.68 22.7955 237.555 23.1356 238.017 23.4637L241.6 18.4222ZM235.181 16.5841C233.029 16.5477 231.003 16.7321 229.125 17.1681L230.524 23.1931C231.826 22.8909 233.336 22.7391 235.076 22.7684L235.181 16.5841ZM226.732 20.1284L226.595 28.2918L232.779 28.3962L232.917 20.2328L226.732 20.1284ZM229.959 31.4247C231.13 31.3213 232.159 31.2808 233.052 31.2959L233.156 25.1115C232.004 25.0921 230.755 25.1451 229.415 25.2633L229.959 31.4247ZM233.052 31.2959C233.852 31.3094 234.767 31.4252 235.806 31.6684L237.215 25.6458C235.823 25.3201 234.467 25.1336 233.156 25.1115L233.052 31.2959ZM236.855 31.7305C238.616 31.5334 240.218 30.7184 241.635 29.6316L237.871 24.7237C237.015 25.3801 236.455 25.5514 236.167 25.5837L236.855 31.7305ZM241.644 29.6248C243.541 28.1588 244.596 26.1077 244.637 23.6968L238.452 23.5925C238.444 24.0841 238.305 24.3883 237.862 24.7304L241.644 29.6248Z" fill="#30324F" mask="url(#path-13-outside-7_663_114)"/>
<mask id="path-15-outside-8_663_114" maskUnits="userSpaceOnUse" x="257.179" y="11.0969" width="39.3683" height="48.3066" fill="black">
<rect fill="white" x="257.179" y="11.0969" width="39.3683" height="48.3066"/>
<path d="M292.143 22.9691L289.671 42.4137C289.297 46.0895 287.796 49.1201 285.166 51.5056C282.573 53.8616 279.11 54.8196 274.778 54.3796C270.446 53.9395 267.23 52.3031 265.13 49.4704C263.063 46.641 262.217 43.3884 262.59 39.7127L264.078 20.1681C264.441 16.5908 265.87 14.9289 268.364 15.1822C270.858 15.4356 271.924 17.3509 271.561 20.9282L269.611 36.6956C269.081 41.9138 269.893 45.3453 272.047 46.9898C272.942 47.6444 274.062 48.0401 275.408 48.1768C276.786 48.3168 277.963 48.1545 278.939 47.6899C279.951 47.1958 280.739 46.447 281.306 45.4435C282.392 43.5643 283.09 41.0987 283.4 38.0465L284.66 22.2091C285.024 18.6318 286.453 16.9698 288.947 17.2232C291.441 17.4765 292.507 19.3919 292.143 22.9691Z"/>
</mask>
<path d="M292.143 22.9691L289.671 42.4137C289.297 46.0895 287.796 49.1201 285.166 51.5056C282.573 53.8616 279.11 54.8196 274.778 54.3796C270.446 53.9395 267.23 52.3031 265.13 49.4704C263.063 46.641 262.217 43.3884 262.59 39.7127L264.078 20.1681C264.441 16.5908 265.87 14.9289 268.364 15.1822C270.858 15.4356 271.924 17.3509 271.561 20.9282L269.611 36.6956C269.081 41.9138 269.893 45.3453 272.047 46.9898C272.942 47.6444 274.062 48.0401 275.408 48.1768C276.786 48.3168 277.963 48.1545 278.939 47.6899C279.951 47.1958 280.739 46.447 281.306 45.4435C282.392 43.5643 283.09 41.0987 283.4 38.0465L284.66 22.2091C285.024 18.6318 286.453 16.9698 288.947 17.2232C291.441 17.4765 292.507 19.3919 292.143 22.9691Z" fill="#FF5E28"/>
<path d="M292.143 22.9691L295.211 23.3592L295.216 23.3205L295.22 23.2817L292.143 22.9691ZM289.671 42.4137L286.603 42.0236L286.598 42.0623L286.594 42.1012L289.671 42.4137ZM285.166 51.5056L283.088 49.215L283.087 49.2165L285.166 51.5056ZM265.13 49.4704L262.633 51.2946L262.639 51.3033L262.645 51.312L265.13 49.4704ZM262.59 39.7127L265.667 40.0252L265.671 39.9864L265.674 39.9475L262.59 39.7127ZM264.078 20.1681L261.001 19.8556L260.997 19.8944L260.994 19.9334L264.078 20.1681ZM271.561 20.9282L274.63 21.3077L274.634 21.2743L274.637 21.2407L271.561 20.9282ZM269.611 36.6956L266.542 36.3161L266.537 36.3495L266.534 36.3831L269.611 36.6956ZM272.047 46.9898L270.17 49.4479L270.195 49.4673L270.221 49.4861L272.047 46.9898ZM278.939 47.6899L280.268 50.4821L280.282 50.4756L280.296 50.4689L278.939 47.6899ZM281.306 45.4435L278.628 43.8959L278.62 43.9099L278.612 43.9239L281.306 45.4435ZM283.4 38.0465L286.477 38.359L286.48 38.3255L286.483 38.2919L283.4 38.0465ZM284.66 22.2091L281.584 21.8966L281.58 21.9301L281.578 21.9637L284.66 22.2091ZM289.075 22.579L286.603 42.0236L292.739 42.8038L295.211 23.3592L289.075 22.579ZM286.594 42.1012C286.294 45.0507 285.127 47.3653 283.088 49.215L287.244 53.7962C290.464 50.8749 292.3 47.1282 292.747 42.7262L286.594 42.1012ZM283.087 49.2165C281.295 50.8441 278.778 51.6773 275.09 51.3028L274.465 57.4564C279.442 57.9619 283.85 56.8791 287.246 53.7947L283.087 49.2165ZM275.09 51.3028C271.405 50.9284 269.078 49.6036 267.615 47.6289L262.645 51.312C265.381 55.0027 269.486 56.9506 274.465 57.4564L275.09 51.3028ZM267.627 47.6462C266.037 45.4689 265.366 42.9868 265.667 40.0252L259.513 39.4002C259.067 43.79 260.09 47.8131 262.633 51.2946L267.627 47.6462ZM265.674 39.9475L267.161 20.4029L260.994 19.9334L259.506 39.4779L265.674 39.9475ZM267.155 20.4806C267.31 18.9549 267.653 18.3872 267.767 18.2548C267.794 18.2232 267.778 18.2479 267.738 18.262C267.715 18.2704 267.796 18.233 268.052 18.259L268.677 12.1054C266.591 11.8936 264.553 12.5055 263.077 14.2226C261.762 15.7521 261.209 17.804 261.001 19.8556L267.155 20.4806ZM268.052 18.259C268.308 18.285 268.379 18.3379 268.358 18.3249C268.322 18.3032 268.311 18.2757 268.331 18.3121C268.416 18.4647 268.639 19.0899 268.484 20.6157L274.637 21.2407C274.846 19.1891 274.717 17.0681 273.737 15.3053C272.636 13.3265 270.762 12.3173 268.677 12.1054L268.052 18.259ZM268.491 20.5487L266.542 36.3161L272.68 37.0751L274.63 21.3077L268.491 20.5487ZM266.534 36.3831C265.992 41.7154 266.607 46.7275 270.17 49.4479L273.923 44.5318C273.179 43.963 272.169 42.1122 272.688 37.0081L266.534 36.3831ZM270.221 49.4861C271.648 50.5297 273.322 51.0735 275.095 51.2536L275.72 45.1C274.802 45.0067 274.236 44.7592 273.872 44.4935L270.221 49.4861ZM275.095 51.2536C276.88 51.4349 278.656 51.2498 280.268 50.4821L277.609 44.8977C277.27 45.0592 276.692 45.1987 275.72 45.1L275.095 51.2536ZM280.296 50.4689C281.884 49.6933 283.133 48.4985 283.999 46.963L278.612 43.9239C278.346 44.3956 278.017 44.6984 277.582 44.9109L280.296 50.4689ZM283.983 46.9911C285.359 44.6105 286.139 41.6791 286.477 38.359L280.323 37.734C280.04 40.5182 279.424 42.5182 278.628 43.8959L283.983 46.9911ZM286.483 38.2919L287.743 22.4545L281.578 21.9637L280.317 37.8011L286.483 38.2919ZM287.737 22.5216C287.892 20.9959 288.236 20.4281 288.35 20.2958C288.377 20.2641 288.36 20.2889 288.321 20.303C288.298 20.3114 288.378 20.274 288.634 20.3L289.259 14.1464C287.174 13.9345 285.136 14.5464 283.659 16.2635C282.344 17.7931 281.792 19.845 281.584 21.8966L287.737 22.5216ZM288.634 20.3C288.89 20.326 288.962 20.3788 288.941 20.3659C288.905 20.3442 288.894 20.3166 288.914 20.3531C288.999 20.5056 289.221 21.1309 289.066 22.6566L295.22 23.2817C295.428 21.2301 295.3 19.1091 294.319 17.3463C293.218 15.3675 291.345 14.3582 289.259 14.1464L288.634 20.3Z" fill="#30324F" mask="url(#path-15-outside-8_663_114)"/>
<mask id="path-17-outside-9_663_114" maskUnits="userSpaceOnUse" x="294.144" y="15.4407" width="41.4749" height="50.3386" fill="black">
<rect fill="white" x="294.144" y="15.4407" width="41.4749" height="50.3386"/>
<path d="M318.443 41.4498L316.434 54.7641C315.799 58.2698 314.248 59.7992 311.781 59.3524C309.314 58.9057 308.398 56.9294 309.033 53.4238L311.821 40.2506C312.303 37.5889 312.948 33.381 313.755 27.6269L307.908 26.8697C306.675 26.6463 305.738 26.1749 305.097 25.4554C304.489 24.7418 304.276 23.8819 304.458 22.8756C304.64 21.8693 305.141 21.1387 305.961 20.6838C306.813 20.2347 307.856 20.1219 309.09 20.3452L318.288 22.3128L327.592 23.696C328.826 23.9194 329.746 24.3879 330.355 25.1015C330.996 25.821 331.225 26.6838 331.043 27.6901C330.86 28.6964 330.343 29.424 329.491 29.8731C328.671 30.3281 327.644 30.4438 326.411 30.2205L320.961 28.9319C320.023 33.1872 319.184 37.3599 318.443 41.4498Z"/>
</mask>
<path d="M318.443 41.4498L316.434 54.7641C315.799 58.2698 314.248 59.7992 311.781 59.3524C309.314 58.9057 308.398 56.9294 309.033 53.4238L311.821 40.2506C312.303 37.5889 312.948 33.381 313.755 27.6269L307.908 26.8697C306.675 26.6463 305.738 26.1749 305.097 25.4554C304.489 24.7418 304.276 23.8819 304.458 22.8756C304.64 21.8693 305.141 21.1387 305.961 20.6838C306.813 20.2347 307.856 20.1219 309.09 20.3452L318.288 22.3128L327.592 23.696C328.826 23.9194 329.746 24.3879 330.355 25.1015C330.996 25.821 331.225 26.6838 331.043 27.6901C330.86 28.6964 330.343 29.424 329.491 29.8731C328.671 30.3281 327.644 30.4438 326.411 30.2205L320.961 28.9319C320.023 33.1872 319.184 37.3599 318.443 41.4498Z" fill="#FF5E28"/>
<path d="M318.443 41.4498L315.4 40.8987L315.392 40.9435L315.385 40.9884L318.443 41.4498ZM316.434 54.7641L319.477 55.3152L319.485 55.2704L319.492 55.2255L316.434 54.7641ZM309.033 53.4238L306.008 52.7834L305.998 52.8279L305.99 52.8727L309.033 53.4238ZM311.821 40.2506L314.847 40.891L314.856 40.8465L314.864 40.8017L311.821 40.2506ZM313.755 27.6269L316.818 28.0566L317.252 24.9613L314.153 24.5599L313.755 27.6269ZM307.908 26.8697L307.357 29.9128L307.434 29.9267L307.511 29.9367L307.908 26.8697ZM305.097 25.4554L302.743 27.4617L302.765 27.4872L302.787 27.5122L305.097 25.4554ZM305.961 20.6838L304.52 17.9476L304.49 17.9633L304.461 17.9795L305.961 20.6838ZM309.09 20.3452L309.737 17.321L309.689 17.3108L309.641 17.3021L309.09 20.3452ZM318.288 22.3128L317.641 25.337L317.737 25.3574L317.833 25.3718L318.288 22.3128ZM327.592 23.696L328.143 20.6529L328.095 20.6442L328.047 20.637L327.592 23.696ZM330.355 25.1015L328.001 27.1077L328.023 27.1333L328.045 27.1583L330.355 25.1015ZM329.491 29.8731L328.049 27.137L328.019 27.1526L327.99 27.1689L329.491 29.8731ZM326.411 30.2205L325.699 33.2301L325.779 33.249L325.859 33.2636L326.411 30.2205ZM320.961 28.9319L321.673 25.9223L318.617 25.1997L317.941 28.266L320.961 28.9319ZM315.385 40.9884L313.376 54.3027L319.492 55.2255L321.501 41.9113L315.385 40.9884ZM313.391 54.213C313.121 55.7019 312.739 56.2244 312.623 56.3384C312.597 56.3641 312.617 56.3411 312.655 56.3309C312.676 56.3251 312.59 56.3559 312.332 56.3093L311.23 62.3956C313.282 62.7671 315.358 62.3285 316.966 60.7424C318.402 59.327 319.112 57.332 319.477 55.3152L313.391 54.213ZM312.332 56.3093C312.075 56.2628 312.005 56.2035 312.023 56.2163C312.055 56.2393 312.065 56.2677 312.05 56.2346C311.982 56.0873 311.807 55.4638 312.076 53.9749L305.99 52.8727C305.625 54.8894 305.59 57.0069 306.438 58.8358C307.388 60.8851 309.179 62.024 311.23 62.3956L312.332 56.3093ZM312.059 54.0641L314.847 40.891L308.796 39.6103L306.008 52.7834L312.059 54.0641ZM314.864 40.8017C315.358 38.0756 316.01 33.8163 316.818 28.0566L310.693 27.1971C309.886 32.9457 309.248 37.1022 308.778 39.6995L314.864 40.8017ZM314.153 24.5599L308.305 23.8027L307.511 29.9367L313.358 30.6939L314.153 24.5599ZM308.459 23.8266C307.7 23.689 307.466 23.4649 307.406 23.3986L302.787 27.5122C304.01 28.8849 305.65 29.6036 307.357 29.9128L308.459 23.8266ZM307.451 23.4491C307.44 23.4374 307.446 23.4414 307.456 23.4617C307.461 23.4713 307.467 23.4827 307.471 23.4954C307.476 23.5082 307.48 23.5205 307.483 23.5316C307.489 23.5551 307.488 23.564 307.487 23.5518C307.487 23.5385 307.488 23.4983 307.501 23.4267L301.415 22.3245C301.084 24.1493 301.474 25.9724 302.743 27.4617L307.451 23.4491ZM307.501 23.4267C307.514 23.3551 307.527 23.3172 307.532 23.3048C307.537 23.2935 307.534 23.3022 307.521 23.3221C307.514 23.3316 307.506 23.3417 307.497 23.352C307.488 23.3623 307.48 23.3711 307.472 23.3783C307.455 23.3936 307.448 23.3955 307.462 23.388L304.461 17.9795C302.749 18.929 301.745 20.4996 301.415 22.3245L307.501 23.4267ZM307.403 23.4199C307.481 23.3785 307.779 23.2508 308.539 23.3884L309.641 17.3021C307.934 16.9929 306.146 17.0909 304.52 17.9476L307.403 23.4199ZM308.443 23.3695L317.641 25.337L318.935 19.2885L309.737 17.321L308.443 23.3695ZM317.833 25.3718L327.137 26.755L328.047 20.637L318.743 19.2538L317.833 25.3718ZM327.041 26.7391C327.809 26.8783 327.991 27.0963 328.001 27.1077L332.708 23.0952C331.501 21.6794 329.842 20.9605 328.143 20.6529L327.041 26.7391ZM328.045 27.1583C328.061 27.1764 328.058 27.1767 328.048 27.158C328.043 27.1492 328.038 27.1377 328.032 27.124C328.027 27.1102 328.022 27.0961 328.018 27.0824C328.015 27.0687 328.013 27.0574 328.012 27.0492C328.01 27.0412 328.01 27.0378 328.01 27.0401C328.011 27.0444 328.011 27.0757 327.999 27.139L334.086 28.2412C334.425 26.3656 333.981 24.5234 332.664 23.0447L328.045 27.1583ZM327.999 27.139C327.988 27.2023 327.977 27.2315 327.975 27.2355C327.974 27.2376 327.975 27.2344 327.979 27.2273C327.983 27.22 327.989 27.2101 327.997 27.1986C328.006 27.1871 328.015 27.1755 328.025 27.1646C328.035 27.1536 328.044 27.1448 328.052 27.1383C328.068 27.1244 328.071 27.1257 328.049 27.137L330.932 32.6092C332.684 31.6863 333.746 30.1169 334.086 28.2412L327.999 27.139ZM327.99 27.1689C327.977 27.1762 327.73 27.3165 326.962 27.1773L325.859 33.2636C327.558 33.5712 329.364 33.48 330.991 32.5773L327.99 27.1689ZM327.122 27.2108L321.673 25.9223L320.25 31.9415L325.699 33.2301L327.122 27.2108ZM317.941 28.266C316.995 32.5576 316.148 36.7686 315.4 40.8987L321.486 42.001C322.22 37.9512 323.051 33.8168 323.982 29.5978L317.941 28.266Z" fill="#30324F" mask="url(#path-17-outside-9_663_114)"/>
<mask id="path-19-outside-10_663_114" maskUnits="userSpaceOnUse" x="326.935" y="22.0571" width="38.0506" height="50.4353" fill="black">
<rect fill="white" x="326.935" y="22.0571" width="38.0506" height="50.4353"/>
<path d="M344.891 27.5214L350.677 29.2693L356.606 30.441C357.79 30.7361 358.663 31.2595 359.224 32.0112C359.816 32.7708 359.989 33.6468 359.742 34.6391C359.502 35.5993 358.943 36.2758 358.063 36.6685C357.215 37.0692 356.199 37.1219 355.015 36.8268L352.794 36.1204C351.389 40.8019 350.272 44.8071 349.443 48.136C348.621 51.433 347.732 55.478 346.775 60.2712C347.96 60.4303 348.728 60.5538 349.08 60.6415C350.264 60.9367 351.137 61.4601 351.697 62.2117C352.29 62.9713 352.463 63.8473 352.215 64.8396C351.976 65.7999 351.416 66.4763 350.537 66.869C349.689 67.2697 348.673 67.3225 347.488 67.0273L341.703 65.2794L335.761 64.1558C334.545 63.8526 333.64 63.3213 333.048 62.5616C332.487 61.81 332.33 60.938 332.578 59.9457C332.825 58.9534 333.369 58.273 334.208 57.9043C335.088 57.5116 336.136 57.4668 337.353 57.77L339.561 58.5244C340.966 53.8429 342.083 49.8377 342.913 46.5087C343.742 43.1798 344.635 39.1187 345.592 34.3256C344.608 34.1823 343.668 33.999 342.771 33.7756C341.907 33.5602 341.175 33.0887 340.574 32.3611C340.013 31.6095 339.857 30.7375 340.104 29.7452C340.351 28.7529 340.899 28.0564 341.747 27.6558C342.626 27.2631 343.675 27.2183 344.891 27.5214Z"/>
</mask>
<path d="M344.891 27.5214L350.677 29.2693L356.606 30.441C357.79 30.7361 358.663 31.2595 359.224 32.0112C359.816 32.7708 359.989 33.6468 359.742 34.6391C359.502 35.5993 358.943 36.2758 358.063 36.6685C357.215 37.0692 356.199 37.1219 355.015 36.8268L352.794 36.1204C351.389 40.8019 350.272 44.8071 349.443 48.136C348.621 51.433 347.732 55.478 346.775 60.2712C347.96 60.4303 348.728 60.5538 349.08 60.6415C350.264 60.9367 351.137 61.4601 351.697 62.2117C352.29 62.9713 352.463 63.8473 352.215 64.8396C351.976 65.7999 351.416 66.4763 350.537 66.869C349.689 67.2697 348.673 67.3225 347.488 67.0273L341.703 65.2794L335.761 64.1558C334.545 63.8526 333.64 63.3213 333.048 62.5616C332.487 61.81 332.33 60.938 332.578 59.9457C332.825 58.9534 333.369 58.273 334.208 57.9043C335.088 57.5116 336.136 57.4668 337.353 57.77L339.561 58.5244C340.966 53.8429 342.083 49.8377 342.913 46.5087C343.742 43.1798 344.635 39.1187 345.592 34.3256C344.608 34.1823 343.668 33.999 342.771 33.7756C341.907 33.5602 341.175 33.0887 340.574 32.3611C340.013 31.6095 339.857 30.7375 340.104 29.7452C340.351 28.7529 340.899 28.0564 341.747 27.6558C342.626 27.2631 343.675 27.2183 344.891 27.5214Z" fill="#FF5E28"/>
<path d="M344.891 27.5214L345.785 24.5609L345.712 24.539L345.639 24.5206L344.891 27.5214ZM350.677 29.2693L349.782 32.2298L349.928 32.2738L350.077 32.3032L350.677 29.2693ZM356.606 30.441L357.354 27.4401L357.28 27.4218L357.206 27.407L356.606 30.441ZM359.224 32.0112L356.745 33.8602L356.765 33.887L356.785 33.9135L359.224 32.0112ZM358.063 36.6685L356.802 33.8444L356.772 33.8581L356.741 33.8724L358.063 36.6685ZM355.015 36.8268L354.077 39.7739L354.171 39.8038L354.267 39.8276L355.015 36.8268ZM352.794 36.1204L353.731 33.1733L350.735 32.2202L349.832 35.2316L352.794 36.1204ZM346.775 60.2712L343.743 59.666L343.098 62.8974L346.364 63.3363L346.775 60.2712ZM351.697 62.2117L349.218 64.0607L349.238 64.0876L349.259 64.114L351.697 62.2117ZM350.537 66.869L349.276 64.0449L349.246 64.0586L349.215 64.0729L350.537 66.869ZM347.488 67.0273L346.594 69.9878L346.667 70.0098L346.741 70.0282L347.488 67.0273ZM341.703 65.2794L342.597 62.319L342.439 62.2713L342.277 62.2407L341.703 65.2794ZM335.761 64.1558L335.013 67.1566L335.099 67.178L335.187 67.1945L335.761 64.1558ZM333.048 62.5616L330.569 64.4106L330.589 64.4375L330.609 64.4639L333.048 62.5616ZM334.208 57.9043L335.452 60.7361L335.46 60.7323L335.469 60.7284L334.208 57.9043ZM337.353 57.77L338.352 54.8433L338.228 54.8009L338.1 54.7691L337.353 57.77ZM339.561 58.5244L338.562 61.451L341.601 62.489L342.524 59.4132L339.561 58.5244ZM345.592 34.3256L348.625 34.9308L349.263 31.7347L346.038 31.2652L345.592 34.3256ZM340.574 32.3611L338.095 34.2101L338.14 34.2711L338.189 34.3298L340.574 32.3611ZM341.747 27.6558L340.486 24.8317L340.456 24.8454L340.425 24.8597L341.747 27.6558ZM343.997 30.4819L349.782 32.2298L351.571 26.3088L345.785 24.5609L343.997 30.4819ZM350.077 32.3032L356.007 33.4749L357.206 27.407L351.276 26.2353L350.077 32.3032ZM355.858 33.4418C356.561 33.6171 356.725 33.834 356.745 33.8602L361.703 30.1622C360.601 28.685 359.02 27.8552 357.354 27.4401L355.858 33.4418ZM356.785 33.9135C356.8 33.9326 356.797 33.9327 356.788 33.9134C356.784 33.9042 356.779 33.8924 356.774 33.8783C356.77 33.8643 356.766 33.8499 356.763 33.836C356.761 33.8221 356.759 33.8107 356.759 33.8024C356.758 33.7943 356.758 33.791 356.758 33.7932C356.758 33.7975 356.756 33.8288 356.741 33.8912L362.742 35.3869C363.203 33.5373 362.88 31.6701 361.662 30.1089L356.785 33.9135ZM356.741 33.8912C356.729 33.9392 356.72 33.9555 356.723 33.9496C356.726 33.9425 356.738 33.9218 356.759 33.8955C356.781 33.869 356.803 33.8496 356.819 33.8381C356.833 33.8274 356.831 33.8316 356.802 33.8444L359.323 39.4926C361.099 38.7001 362.28 37.2408 362.742 35.3869L356.741 33.8912ZM356.741 33.8724C356.712 33.8863 356.466 34.0012 355.763 33.8259L354.267 39.8276C355.932 40.2427 357.718 40.252 359.384 39.4646L356.741 33.8724ZM355.952 33.8797L353.731 33.1733L351.857 39.0675L354.077 39.7739L355.952 33.8797ZM349.832 35.2316C348.419 39.942 347.287 43.9969 346.442 47.3882L352.443 48.8839C353.258 45.6173 354.36 41.6618 355.756 37.0092L349.832 35.2316ZM346.442 47.3882C345.605 50.7479 344.705 54.8437 343.743 59.666L349.808 60.8764C350.759 56.1123 351.637 52.118 352.443 48.8839L346.442 47.3882ZM346.364 63.3363C346.942 63.4139 347.401 63.4807 347.749 63.5366C347.923 63.5645 348.06 63.5883 348.165 63.6081C348.217 63.6179 348.257 63.626 348.287 63.6324C348.302 63.6355 348.313 63.638 348.321 63.6398C348.329 63.6416 348.333 63.6425 348.332 63.6424L349.828 57.6407C349.278 57.5037 348.331 57.3598 347.187 57.2061L346.364 63.3363ZM348.332 63.6424C349.035 63.8176 349.199 64.0346 349.218 64.0607L354.176 60.3627C353.075 58.8855 351.493 58.0557 349.828 57.6407L348.332 63.6424ZM349.259 64.114C349.274 64.1331 349.271 64.1332 349.262 64.1139C349.258 64.1048 349.253 64.0929 349.248 64.0789C349.244 64.0648 349.24 64.0504 349.237 64.0365C349.234 64.0226 349.233 64.0112 349.232 64.003C349.232 63.9948 349.232 63.9915 349.232 63.9938C349.232 63.998 349.23 64.0293 349.214 64.0917L355.216 65.5874C355.677 63.7378 355.354 61.8707 354.136 60.3094L349.259 64.114ZM349.214 64.0917C349.203 64.1397 349.194 64.156 349.197 64.1501C349.2 64.1431 349.211 64.1223 349.233 64.096C349.255 64.0696 349.277 64.0501 349.292 64.0387C349.307 64.0279 349.305 64.0321 349.276 64.0449L351.797 69.6931C353.573 68.9006 354.754 67.4413 355.216 65.5874L349.214 64.0917ZM349.215 64.0729C349.186 64.0869 348.939 64.2017 348.236 64.0265L346.741 70.0282C348.406 70.4432 350.192 70.4525 351.858 69.6651L349.215 64.0729ZM348.383 64.0668L342.597 62.319L340.808 68.2399L346.594 69.9878L348.383 64.0668ZM342.277 62.2407L336.336 61.117L335.187 67.1945L341.128 68.3182L342.277 62.2407ZM336.509 61.1549C335.76 60.9682 335.541 60.7294 335.486 60.6593L330.609 64.4639C331.74 65.9131 333.33 66.7371 335.013 67.1566L336.509 61.1549ZM335.527 60.7127C335.518 60.7003 335.523 60.7047 335.532 60.7256C335.536 60.7355 335.541 60.7472 335.545 60.7602C335.549 60.7733 335.552 60.7858 335.554 60.797C335.558 60.8208 335.556 60.8297 335.557 60.8175C335.558 60.8043 335.561 60.7642 335.579 60.6936L329.577 59.1979C329.128 60.9974 329.399 62.8419 330.569 64.4106L335.527 60.7127ZM335.579 60.6936C335.596 60.6227 335.611 60.5887 335.615 60.5818C335.617 60.5761 335.61 60.5928 335.587 60.6213C335.564 60.6505 335.535 60.6794 335.503 60.7034C335.472 60.727 335.451 60.7362 335.452 60.7361L332.965 55.0725C331.139 55.8741 330.025 57.3984 329.577 59.1979L335.579 60.6936ZM335.469 60.7284C335.55 60.6922 335.856 60.5841 336.605 60.7708L338.1 54.7691C336.417 54.3496 334.626 54.331 332.948 55.0802L335.469 60.7284ZM336.353 60.6966L338.562 61.451L340.561 55.5978L338.352 54.8433L336.353 60.6966ZM342.524 59.4132C343.937 54.7028 345.068 50.6479 345.914 47.2566L339.912 45.7609C339.098 49.0274 337.995 52.983 336.599 57.6356L342.524 59.4132ZM345.914 47.2566C346.759 43.8652 347.662 39.7535 348.625 34.9308L342.559 33.7203C341.609 38.4839 340.726 42.4943 339.912 45.7609L345.914 47.2566ZM346.038 31.2652C345.147 31.1356 344.308 30.9715 343.519 30.7748L342.023 36.7765C343.027 37.0265 344.068 37.229 345.146 37.3859L346.038 31.2652ZM343.519 30.7748C343.336 30.7292 343.165 30.6419 342.959 30.3924L338.189 34.3298C339.184 35.5356 340.478 36.3912 342.023 36.7765L343.519 30.7748ZM343.053 30.5121C343.044 30.4997 343.049 30.5042 343.058 30.5251C343.063 30.5349 343.067 30.5467 343.071 30.5597C343.075 30.5728 343.078 30.5853 343.08 30.5965C343.084 30.6203 343.083 30.6291 343.083 30.617C343.084 30.6037 343.087 30.5637 343.105 30.493L337.103 28.9974C336.655 30.7968 336.925 32.6414 338.095 34.2101L343.053 30.5121ZM343.105 30.493C343.122 30.4224 343.138 30.3855 343.144 30.3734C343.149 30.3624 343.146 30.371 343.131 30.39C343.124 30.399 343.116 30.4086 343.106 30.4183C343.097 30.4279 343.087 30.4362 343.079 30.4428C343.061 30.457 343.054 30.4585 343.068 30.4519L340.425 24.8597C338.656 25.6959 337.552 27.1979 337.103 28.9974L343.105 30.493ZM343.007 30.4799C343.088 30.4437 343.394 30.3356 344.143 30.5223L345.639 24.5206C343.955 24.101 342.165 24.0825 340.486 24.8317L343.007 30.4799Z" fill="#30324F" mask="url(#path-19-outside-10_663_114)"/>
<mask id="path-21-outside-11_663_114" maskUnits="userSpaceOnUse" x="355.918" y="30.0383" width="53.0908" height="55.6266" fill="black">
<rect fill="white" x="355.918" y="30.0383" width="53.0908" height="55.6266"/>
<path d="M378.21 70.1452C380.997 71.0703 383.729 70.5872 386.408 68.6958C389.087 66.8045 390.972 64.2152 392.063 60.9279C393.165 57.6093 393.198 54.4224 392.161 51.3671C391.166 48.2909 389.26 46.2851 386.443 45.3496C383.656 44.4245 380.929 44.8919 378.261 46.752C375.634 48.5911 373.77 51.17 372.668 54.4886C371.577 57.7759 371.539 60.9785 372.554 64.0963C373.57 67.2142 375.455 69.2305 378.21 70.1452ZM388.454 39.448C393.119 40.9968 396.409 44.0702 398.323 48.6683C400.279 53.2455 400.41 58.0857 398.716 63.1889C397.032 68.2607 394.032 72.0614 389.716 74.591C385.401 77.1207 380.91 77.6111 376.246 76.0623C371.612 74.524 368.322 71.4505 366.377 66.842C364.431 62.2335 364.3 57.3934 365.984 52.3215C367.678 47.2184 370.678 43.4177 374.983 40.9193C379.33 38.4001 383.821 37.9097 388.454 39.448Z"/>
</mask>
<path d="M378.21 70.1452C380.997 71.0703 383.729 70.5872 386.408 68.6958C389.087 66.8045 390.972 64.2152 392.063 60.9279C393.165 57.6093 393.198 54.4224 392.161 51.3671C391.166 48.2909 389.26 46.2851 386.443 45.3496C383.656 44.4245 380.929 44.8919 378.261 46.752C375.634 48.5911 373.77 51.17 372.668 54.4886C371.577 57.7759 371.539 60.9785 372.554 64.0963C373.57 67.2142 375.455 69.2305 378.21 70.1452ZM388.454 39.448C393.119 40.9968 396.409 44.0702 398.323 48.6683C400.279 53.2455 400.41 58.0857 398.716 63.1889C397.032 68.2607 394.032 72.0614 389.716 74.591C385.401 77.1207 380.91 77.6111 376.246 76.0623C371.612 74.524 368.322 71.4505 366.377 66.842C364.431 62.2335 364.3 57.3934 365.984 52.3215C367.678 47.2184 370.678 43.4177 374.983 40.9193C379.33 38.4001 383.821 37.9097 388.454 39.448Z" fill="#FF5E28"/>
<path d="M386.408 68.6958L388.192 71.2222L388.192 71.2222L386.408 68.6958ZM392.161 51.3671L389.218 52.3186L389.225 52.3396L389.232 52.3605L392.161 51.3671ZM378.261 46.752L376.492 44.2149L376.487 44.2186L378.261 46.752ZM372.554 64.0963L369.614 65.0542L369.614 65.0542L372.554 64.0963ZM398.323 48.6683L395.468 49.8571L395.474 49.8704L395.479 49.8837L398.323 48.6683ZM389.716 74.591L388.153 71.923L389.716 74.591ZM366.377 66.842L363.528 68.045L363.528 68.045L366.377 66.842ZM374.983 40.9193L373.433 38.2436L373.431 38.2444L374.983 40.9193ZM377.236 73.0803C381.073 74.3543 384.819 73.6037 388.192 71.2222L384.624 66.1695C382.64 67.5706 380.92 67.7863 379.185 67.2101L377.236 73.0803ZM388.192 71.2222C391.441 68.9276 393.711 65.779 394.998 61.9024L389.128 59.9534C388.232 62.6513 386.732 64.6814 384.624 66.1695L388.192 71.2222ZM394.998 61.9024C396.293 58.0014 396.361 54.1212 395.09 50.3736L389.232 52.3605C390.034 54.7235 390.036 57.2171 389.128 59.9534L394.998 61.9024ZM395.104 50.4156C393.837 46.4995 391.262 43.6909 387.417 42.4145L385.468 48.2847C387.259 48.8792 388.495 50.0824 389.218 52.3186L395.104 50.4156ZM387.417 42.4145C383.595 41.1457 379.861 41.8663 376.492 44.2149L380.029 49.289C381.997 47.9175 383.717 47.7033 385.468 48.2847L387.417 42.4145ZM376.487 44.2186C373.266 46.474 371.024 49.6249 369.733 53.5141L375.603 55.463C376.515 52.715 378.002 50.7082 380.034 49.2853L376.487 44.2186ZM369.733 53.5141C368.446 57.3908 368.381 61.2715 369.614 65.0542L375.495 63.1385C374.696 60.6854 374.707 58.161 375.603 55.463L369.733 53.5141ZM369.614 65.0542C370.888 68.9669 373.418 71.8128 377.236 73.0803L379.185 67.2101C377.492 66.6482 376.251 65.4615 375.495 63.1385L369.614 65.0542ZM387.48 42.3831C391.281 43.6453 393.893 46.0733 395.468 49.8571L401.178 47.4796C398.925 42.0672 394.957 38.3483 389.429 36.5129L387.48 42.3831ZM395.479 49.8837C397.114 53.7085 397.258 57.7655 395.781 62.2144L401.651 64.1633C403.563 58.4059 403.445 52.7826 401.167 47.453L395.479 49.8837ZM395.781 62.2144C394.316 66.6268 391.774 69.8 388.153 71.923L391.28 77.2591C396.29 74.3228 399.748 69.8945 401.651 64.1633L395.781 62.2144ZM388.153 71.923C384.589 74.0115 381.023 74.3898 377.22 73.1273L375.271 78.9974C380.798 80.8324 386.212 80.2299 391.28 77.2591L388.153 71.923ZM377.22 73.1273C373.455 71.8773 370.835 69.4504 369.226 65.6391L363.528 68.045C365.81 73.4507 369.769 77.1707 375.271 78.9974L377.22 73.1273ZM369.226 65.6391C367.593 61.7715 367.454 57.7085 368.919 53.296L363.049 51.347C361.146 57.0783 361.269 62.6955 363.528 68.045L369.226 65.6391ZM368.919 53.296C370.396 48.8471 372.938 45.6818 376.535 43.5942L373.431 38.2444C368.418 41.1535 364.96 45.5896 363.049 51.347L368.919 53.296ZM376.534 43.5951C380.141 41.5049 383.714 41.1328 387.48 42.3831L389.429 36.5129C383.927 34.6865 378.52 35.2952 373.433 38.2436L376.534 43.5951Z" fill="#30324F" mask="url(#path-21-outside-11_663_114)"/>
<mask id="path-23-outside-12_663_114" maskUnits="userSpaceOnUse" x="399.359" y="46.3096" width="49.1345" height="54.8303" fill="black">
<rect fill="white" x="399.359" y="46.3096" width="49.1345" height="54.8303"/>
<path d="M436.343 78.799L430.555 92.4693C429.37 95.1916 427.643 96.059 425.375 95.0715C424.044 94.4922 423.27 93.418 423.054 91.8487L419.836 66.757C419.46 67.4566 418.903 68.6533 418.166 70.3472L412.717 83.7335C411.295 87.0002 409.435 88.1332 407.136 87.1327C404.837 86.1321 404.399 83.9984 405.821 80.7318L411.555 68.549C412.042 67.4299 412.87 65.3619 414.04 62.345C415.209 59.3282 416.241 56.7913 417.136 54.7346C418.308 52.0426 420.013 51.1837 422.251 52.158C423.794 52.8294 424.65 53.9215 424.819 55.4342L427.888 81.4866L430.173 76.1132L435.182 63.6145C436.603 60.3478 438.464 59.2148 440.763 60.2153C443.061 61.2159 443.5 63.3496 442.078 66.6162L436.343 78.799Z"/>
</mask>
<path d="M436.343 78.799L430.555 92.4693C429.37 95.1916 427.643 96.059 425.375 95.0715C424.044 94.4922 423.27 93.418 423.054 91.8487L419.836 66.757C419.46 67.4566 418.903 68.6533 418.166 70.3472L412.717 83.7335C411.295 87.0002 409.435 88.1332 407.136 87.1327C404.837 86.1321 404.399 83.9984 405.821 80.7318L411.555 68.549C412.042 67.4299 412.87 65.3619 414.04 62.345C415.209 59.3282 416.241 56.7913 417.136 54.7346C418.308 52.0426 420.013 51.1837 422.251 52.158C423.794 52.8294 424.65 53.9215 424.819 55.4342L427.888 81.4866L430.173 76.1132L435.182 63.6145C436.603 60.3478 438.464 59.2148 440.763 60.2153C443.061 61.2159 443.5 63.3496 442.078 66.6162L436.343 78.799Z" fill="#FF5E28"/>
<path d="M436.343 78.799L433.545 77.4819L433.519 77.537L433.495 77.5931L436.343 78.799ZM430.555 92.4693L433.391 93.7036L433.397 93.6894L433.403 93.6752L430.555 92.4693ZM423.054 91.8487L419.986 92.242L419.988 92.2566L419.99 92.2711L423.054 91.8487ZM419.836 66.757L422.904 66.3637L421.679 56.8075L417.113 65.2915L419.836 66.757ZM418.166 70.3472L415.33 69.1129L415.315 69.1469L415.301 69.1812L418.166 70.3472ZM412.717 83.7335L415.552 84.9678L415.567 84.9338L415.581 84.8995L412.717 83.7335ZM405.821 80.7318L403.022 79.4147L403.003 79.4558L402.985 79.4975L405.821 80.7318ZM411.555 68.549L414.353 69.8661L414.373 69.825L414.391 69.7833L411.555 68.549ZM414.04 62.345L411.156 61.2274L411.156 61.2274L414.04 62.345ZM424.819 55.4342L421.745 55.7777L421.746 55.7868L421.748 55.796L424.819 55.4342ZM427.888 81.4866L424.817 81.8485L426.179 93.4097L430.734 82.6968L427.888 81.4866ZM430.173 76.1132L433.019 77.3234L433.032 77.2936L433.044 77.2636L430.173 76.1132ZM435.182 63.6145L432.346 62.3802L432.328 62.4219L432.311 62.4641L435.182 63.6145ZM442.078 66.6162L444.876 67.9333L444.895 67.8922L444.914 67.8505L442.078 66.6162ZM433.495 77.5931L427.707 91.2635L433.403 93.6752L439.191 80.0048L433.495 77.5931ZM427.719 91.2351C427.268 92.2722 426.932 92.4235 426.983 92.398C427.026 92.3763 427.072 92.3732 427.067 92.3731C427.043 92.3723 426.898 92.3619 426.609 92.2359L424.14 97.9072C425.862 98.6563 427.856 98.8811 429.759 97.9251C431.537 97.0322 432.657 95.3887 433.391 93.7036L427.719 91.2351ZM426.609 92.2359C426.403 92.1461 426.337 92.0672 426.306 92.0241C426.267 91.9697 426.17 91.8088 426.118 91.4263L419.99 92.2711C420.338 94.7913 421.717 96.8522 424.14 97.9072L426.609 92.2359ZM426.121 91.4554L422.904 66.3637L416.769 67.1504L419.986 92.242L426.121 91.4554ZM417.113 65.2915C416.67 66.1148 416.069 67.4157 415.33 69.1129L421.001 71.5814C421.737 69.891 422.25 68.7984 422.56 68.2225L417.113 65.2915ZM415.301 69.1812L409.852 82.5676L415.581 84.8995L421.03 71.5131L415.301 69.1812ZM409.881 82.4993C409.277 83.8867 408.785 84.3076 408.646 84.392C408.615 84.411 408.64 84.3932 408.679 84.392C408.701 84.3913 408.61 84.4013 408.37 84.297L405.902 89.9683C407.813 90.8004 409.935 90.8496 411.864 89.6746C413.586 88.626 414.734 86.8471 415.552 84.9678L409.881 82.4993ZM408.37 84.297C408.131 84.1927 408.076 84.1189 408.09 84.1355C408.116 84.1651 408.12 84.1953 408.112 84.1595C408.08 84.0005 408.052 83.3535 408.656 81.9661L402.985 79.4975C402.167 81.3768 401.648 83.4299 402.054 85.4045C402.508 87.6171 403.99 89.1362 405.902 89.9683L408.37 84.297ZM408.619 82.0489L414.353 69.8661L408.757 67.2319L403.022 79.4147L408.619 82.0489ZM414.391 69.7833C414.906 68.5986 415.756 66.4752 416.923 63.4626L411.156 61.2274C409.985 64.2486 409.178 66.2612 408.719 67.3147L414.391 69.7833ZM416.923 63.4626C418.083 60.4695 419.099 57.9744 419.972 55.9688L414.301 53.5003C413.383 55.6083 412.334 58.1868 411.156 61.2274L416.923 63.4626ZM419.972 55.9688C420.417 54.9456 420.745 54.8032 420.685 54.8334C420.669 54.8414 420.645 54.8509 420.617 54.857C420.589 54.863 420.575 54.8621 420.582 54.8623C420.6 54.8628 420.736 54.8712 421.017 54.9936L423.486 49.3223C421.778 48.5789 419.795 48.3564 417.903 49.3094C416.138 50.1985 415.027 51.8315 414.301 53.5003L419.972 55.9688ZM421.017 54.9936C421.417 55.1676 421.566 55.3238 421.616 55.3882C421.656 55.439 421.718 55.5347 421.745 55.7777L427.892 55.0907C427.585 52.3445 425.914 50.3792 423.486 49.3223L421.017 54.9936ZM421.748 55.796L424.817 81.8485L430.959 81.1248L427.89 55.0724L421.748 55.796ZM430.734 82.6968L433.019 77.3234L427.327 74.903L425.042 80.2764L430.734 82.6968ZM433.044 77.2636L438.052 64.7648L432.311 62.4641L427.302 74.9628L433.044 77.2636ZM438.017 64.8487C438.621 63.4613 439.113 63.0404 439.252 62.956C439.283 62.937 439.258 62.9548 439.219 62.956C439.197 62.9567 439.289 62.9467 439.528 63.051L441.997 57.3797C440.085 56.5476 437.964 56.4984 436.035 57.6734C434.313 58.722 433.164 60.5009 432.346 62.3802L438.017 64.8487ZM439.528 63.051C439.768 63.1553 439.823 63.2291 439.808 63.2125C439.783 63.1829 439.779 63.1527 439.786 63.1885C439.819 63.3475 439.846 63.9946 439.242 65.382L444.914 67.8505C445.731 65.9712 446.251 63.9181 445.845 61.9435C445.39 59.7309 443.908 58.2118 441.997 57.3797L439.528 63.051ZM439.28 65.2991L433.545 77.4819L439.141 80.1161L444.876 67.9333L439.28 65.2991Z" fill="#30324F" mask="url(#path-23-outside-12_663_114)"/>
</svg>
