<svg width="56" height="56" viewBox="0 0 56 56" fill="none" xmlns="http://www.w3.org/2000/svg">
<circle cx="28" cy="28" r="26" fill="#01D3EC" stroke="#0498AA" stroke-width="4"/>
<path d="M33.8499 28.0013C33.8507 27.8408 33.8258 27.6866 33.7731 27.5403C33.717 27.3845 33.624 27.2456 33.5017 27.1232L25.1019 18.6985L25.1019 18.6985C24.8074 18.4031 24.4487 18.25 24.0379 18.25C23.6271 18.25 23.2682 18.4031 22.9731 18.6982C22.6768 18.9946 22.5249 19.3579 22.5249 19.775C22.5249 20.1868 22.6648 20.5435 22.9481 20.8268L30.1213 28L22.9734 35.148C22.678 35.4425 22.5249 35.8012 22.5249 36.212C22.5249 36.6228 22.678 36.9817 22.9731 37.2768M33.8499 28.0013L33.5999 28H33.8499C33.8499 28.0004 33.8499 28.0008 33.8499 28.0013ZM33.8499 28.0013C33.8498 28.1608 33.8245 28.3143 33.7721 28.4597C33.7162 28.6151 33.6238 28.7538 33.5023 28.8762L33.5017 28.8768L25.0767 37.3018C24.7946 37.5839 24.4425 37.725 24.0369 37.725C23.6262 37.725 23.2676 37.5719 22.9731 37.2768M22.9731 37.2768L23.1499 37.1L22.9729 37.2765C22.973 37.2766 22.973 37.2767 22.9731 37.2768Z" fill="white" stroke="white" stroke-width="0.5"/>
</svg>
