<svg width="56" height="56" viewBox="0 0 56 56" fill="none" xmlns="http://www.w3.org/2000/svg">
<circle cx="28" cy="28" r="26" transform="matrix(-1 0 0 1 56 0)" fill="#01D3EC" stroke="#0498AA" stroke-width="4"/>
<path d="M22.1501 28.0013C22.1493 27.8408 22.1742 27.6866 22.2269 27.5403C22.283 27.3845 22.376 27.2456 22.4983 27.1232L30.8981 18.6985L30.8981 18.6985C31.1926 18.4031 31.5513 18.25 31.9621 18.25C32.3729 18.25 32.7318 18.4031 33.0269 18.6982C33.3232 18.9946 33.4751 19.3579 33.4751 19.775C33.4751 20.1868 33.3352 20.5435 33.0519 20.8268L25.8787 28L33.0266 35.148C33.322 35.4425 33.4751 35.8012 33.4751 36.212C33.4751 36.6228 33.322 36.9817 33.0269 37.2768M22.1501 28.0013L22.4001 28H22.1501C22.1501 28.0004 22.1501 28.0008 22.1501 28.0013ZM22.1501 28.0013C22.1502 28.1608 22.1755 28.3143 22.2279 28.4597C22.2838 28.6151 22.3762 28.7538 22.4977 28.8762L22.4983 28.8768L30.9233 37.3018C31.2054 37.5839 31.5575 37.725 31.9631 37.725C32.3738 37.725 32.7324 37.5719 33.0269 37.2768M33.0269 37.2768L32.8501 37.1L33.0271 37.2765C33.027 37.2766 33.027 37.2767 33.0269 37.2768Z" fill="white" stroke="white" stroke-width="0.5"/>
</svg>
