<svg width="28" height="28" viewBox="0 0 28 28" fill="none" xmlns="http://www.w3.org/2000/svg">
<path d="M3.5 7.00016C3.5 5.76249 3.99167 4.5755 4.86683 3.70033C5.742 2.82516 6.92899 2.3335 8.16667 2.3335H24.5V25.6668H8.16667C6.92899 25.6668 5.742 25.1752 4.86683 24.3C3.99167 23.4248 3.5 22.2378 3.5 21.0002V7.00016ZM5.83333 16.9577C6.54247 16.5475 7.34746 16.3322 8.16667 16.3335H22.1667V4.66683H8.16667C7.54783 4.66683 6.95434 4.91266 6.51675 5.35025C6.07917 5.78783 5.83333 6.38132 5.83333 7.00016V16.9577ZM22.1667 18.6668H8.16667C7.54783 18.6668 6.95434 18.9127 6.51675 19.3502C6.07917 19.7878 5.83333 20.3813 5.83333 21.0002C5.83333 21.619 6.07917 22.2125 6.51675 22.6501C6.95434 23.0877 7.54783 23.3335 8.16667 23.3335H22.1667V18.6668ZM11.6667 7.00016H19.8333V9.3335H11.6667V7.00016Z" fill="white"/>
</svg>
