<svg width="232" height="118" viewBox="0 0 232 118" fill="none" xmlns="http://www.w3.org/2000/svg">
<path fill-rule="evenodd" clip-rule="evenodd" d="M198.286 92.0624C220.363 82.7238 230 68.9416 230 54.0249C230 35.6711 210.564 17.5397 178.411 8.57483C162.815 4.22656 144.492 2.3327 123.44 2.3327C58.9831 2.3327 -0.458786 21.059 2.0784 54.0249C2.0784 68.7561 11.0014 82.4202 29.1412 91.5503C25.9006 95.1579 22.3878 98.7692 18.487 102.779C14.8881 106.479 10.9589 110.518 6.60866 115.208C9.1543 113.782 11.5795 112.448 13.9079 111.168C23.3164 105.994 31.143 101.69 38.9399 95.7037C53.4241 100.82 72.1196 103.376 95.9532 103.376C141.639 106.303 176.192 101.408 198.286 92.0624Z" fill="white"/>
<path d="M198.286 92.0624L199.065 93.9044L198.286 92.0624ZM178.411 8.57483L177.874 10.5014L178.411 8.57483ZM2.0784 54.0249L4.07249 53.8714C4.07643 53.9224 4.0784 53.9736 4.0784 54.0249H2.0784ZM29.1412 91.5503L30.0404 89.7638C30.597 90.0439 30.9912 90.5675 31.1066 91.1798C31.222 91.7921 31.0455 92.4232 30.6291 92.8868L29.1412 91.5503ZM18.487 102.779L19.9207 104.174L18.487 102.779ZM6.60866 115.208L7.58588 116.953C6.72693 117.434 5.64568 117.218 5.0369 116.444C4.42812 115.671 4.4729 114.569 5.14246 113.847L6.60866 115.208ZM13.9079 111.168L14.8716 112.92L13.9079 111.168ZM38.9399 95.7037L37.7219 94.1174C38.2588 93.7051 38.9677 93.5924 39.606 93.8179L38.9399 95.7037ZM95.9532 103.376V101.376C95.9958 101.376 96.0385 101.378 96.081 101.38L95.9532 103.376ZM232 54.0249C232 70.0081 221.606 84.3699 199.065 93.9044L197.507 90.2204C219.121 81.0778 228 67.8751 228 54.0249H232ZM178.948 6.64832C195.242 11.1914 208.436 18.0886 217.597 26.2889C226.75 34.4829 232 44.1063 232 54.0249H228C228 45.5896 223.532 36.9704 214.929 29.2692C206.333 21.5741 193.733 14.9232 177.874 10.5014L178.948 6.64832ZM123.44 0.332703C144.599 0.332703 163.118 2.23463 178.948 6.64832L177.874 10.5014C162.513 6.2185 144.386 4.3327 123.44 4.3327V0.332703ZM0.0842896 54.1783C-0.60321 45.2455 2.94084 37.3547 9.47356 30.6453C15.9694 23.9736 25.4632 18.4114 36.9106 13.9529C59.8151 5.03219 91.0554 0.332703 123.44 0.332703V4.3327C91.3676 4.3327 60.6586 8.99634 38.3622 17.6802C27.2092 22.0241 18.2897 27.3245 12.3395 33.4357C6.42615 39.509 3.49141 46.3213 4.07249 53.8714L0.0842896 54.1783ZM28.2421 93.3367C9.60472 83.9562 0.0783997 69.6917 0.0783997 54.0249H4.0784C4.0784 67.8204 12.3981 80.8841 30.0404 89.7638L28.2421 93.3367ZM17.0534 101.385C20.9603 97.3683 24.4442 93.7864 27.6534 90.2138L30.6291 92.8868C27.357 96.5294 23.8153 100.17 19.9207 104.174L17.0534 101.385ZM5.14246 113.847C9.51082 109.139 13.4553 105.084 17.0534 101.385L19.9207 104.174C16.3209 107.874 12.4071 111.898 8.07484 116.568L5.14246 113.847ZM14.8716 112.92C12.5424 114.201 10.1238 115.531 7.58588 116.953L5.63142 113.463C8.18483 112.033 10.6166 110.695 12.9442 109.415L14.8716 112.92ZM40.1579 97.29C32.221 103.384 24.2605 107.758 14.8716 112.92L12.9442 109.415C22.3722 104.231 30.065 99.9966 37.7219 94.1174L40.1579 97.29ZM95.9532 105.376C71.9985 105.376 53.0531 102.81 38.2738 97.5895L39.606 93.8179C53.7952 98.8295 72.2406 101.376 95.9532 101.376V105.376ZM199.065 93.9044C176.571 103.419 141.67 108.309 95.8253 105.372L96.081 101.38C141.609 104.297 175.812 99.397 197.507 90.2204L199.065 93.9044Z" fill="#1E1E1E"/>
</svg>
