<svg width="413" height="170" viewBox="0 0 413 170" fill="none" xmlns="http://www.w3.org/2000/svg">
<path fill-rule="evenodd" clip-rule="evenodd" d="M354.11 129.873C393.713 116.564 411 96.9235 411 75.6658C411 49.5101 376.134 23.6714 318.456 10.8956C290.48 4.69892 257.611 2 219.846 2C104.22 2 -2.41074 28.6865 2.14062 75.6658C2.14062 98.9763 21.8759 120.412 62.0677 133.208C88.8474 141.735 124.304 145.996 170.539 145.996C235.419 149.298 287.783 145.614 326.45 137.327C331.323 143.822 336.692 150.25 342.614 157.34C345.25 160.495 347.995 163.782 350.855 167.264C347.841 158.468 344.957 150.772 342.314 143.722C341.103 140.491 339.944 137.396 338.845 134.394C344.254 132.984 349.343 131.474 354.11 129.873Z" fill="white"/>
<path d="M354.11 129.873L353.472 127.977V127.977L354.11 129.873ZM318.456 10.8956L318.889 8.94291L318.456 10.8956ZM2.14062 75.6658L4.13132 75.473C4.13751 75.5371 4.14062 75.6014 4.14062 75.6658H2.14062ZM62.0677 133.208L62.6744 131.303L62.0677 133.208ZM170.539 145.996V143.996C170.573 143.996 170.607 143.997 170.64 143.998L170.539 145.996ZM326.45 137.327L326.03 135.372C326.793 135.208 327.581 135.503 328.049 136.127L326.45 137.327ZM342.614 157.34L341.079 158.622H341.079L342.614 157.34ZM350.855 167.264L352.747 166.615C353.061 167.531 352.674 168.539 351.829 169.01C350.985 169.482 349.924 169.281 349.31 168.533L350.855 167.264ZM342.314 143.722L344.187 143.02V143.02L342.314 143.722ZM338.845 134.394L336.967 135.081C336.773 134.552 336.812 133.965 337.074 133.466C337.335 132.967 337.795 132.601 338.341 132.459L338.845 134.394ZM413 75.6658C413 98.2583 394.597 118.377 354.747 131.768L353.472 127.977C392.83 114.751 409 95.5888 409 75.6658H413ZM318.889 8.94291C347.898 15.3685 371.307 25.1058 387.516 36.6333C403.678 48.1268 413 61.6502 413 75.6658H409C409 63.5257 400.889 51.0519 385.198 39.8931C369.555 28.7684 346.692 19.1985 318.024 12.8483L318.889 8.94291ZM219.846 0C257.695 0 290.721 2.70376 318.889 8.94291L318.024 12.8483C290.24 6.69408 257.528 4 219.846 4V0ZM0.149933 75.8587C-1.07468 63.2182 5.2402 52.1472 16.7127 42.7865C28.1599 33.4464 44.9517 25.612 65.3355 19.305C106.133 6.68211 161.912 0 219.846 0V4C162.154 4 106.805 10.6612 66.5179 23.1263C46.3598 29.3634 30.1206 37.0092 19.2414 45.8858C8.38742 54.7418 3.08023 64.6238 4.13132 75.473L0.149933 75.8587ZM61.4609 135.114C20.9898 122.229 0.140625 100.312 0.140625 75.6658H4.14062C4.14062 97.6409 22.7619 118.595 62.6744 131.303L61.4609 135.114ZM170.539 147.996C124.207 147.996 88.5191 143.729 61.4609 135.114L62.6744 131.303C89.1757 139.74 124.4 143.996 170.539 143.996V147.996ZM326.869 139.283C287.98 147.617 235.432 151.301 170.437 147.993L170.64 143.998C235.407 147.295 287.585 143.611 326.03 135.372L326.869 139.283ZM328.049 136.127C332.886 142.573 338.22 148.959 344.149 156.058L341.079 158.622C335.164 151.54 329.761 145.072 324.85 138.528L328.049 136.127ZM344.149 156.058C346.784 159.212 349.534 162.505 352.401 165.994L349.31 168.533C346.456 165.058 343.715 161.778 341.079 158.622L344.149 156.058ZM348.963 167.912C345.96 159.147 343.084 151.475 340.442 144.424L344.187 143.02C346.829 150.069 349.723 157.79 352.747 166.615L348.963 167.912ZM340.442 144.424C339.231 141.195 338.068 138.092 336.967 135.081L340.724 133.707C341.819 136.701 342.976 139.788 344.187 143.02L340.442 144.424ZM354.747 131.768C349.933 133.386 344.799 134.909 339.35 136.329L338.341 132.459C343.709 131.059 348.754 129.562 353.472 127.977L354.747 131.768Z" fill="#1E1E1E"/>
</svg>
