<svg width="344" height="147" viewBox="0 0 344 147" fill="none" xmlns="http://www.w3.org/2000/svg">
<path fill-rule="evenodd" clip-rule="evenodd" d="M305.514 120.543C330.798 108.006 342 91.1244 342 73.0276C342 47.8086 313.016 22.8953 265.069 10.577C241.813 4.60226 214.489 2 183.095 2C86.9748 2 -1.66663 27.7308 2.11691 73.0276C2.11691 95.5033 18.5227 116.171 51.934 128.509C74.1959 136.731 103.67 140.839 142.106 140.839C207.318 144.689 257.318 138.691 290.374 126.908C299.86 131.651 309.818 135.534 321.179 139.963C325.009 141.457 328.998 143.012 333.183 144.684C326.302 138.431 320.064 133.08 314.35 128.178C311.257 125.525 308.318 123.003 305.514 120.543Z" fill="white"/>
<path d="M305.514 120.543L304.195 122.046C303.694 121.606 303.445 120.945 303.531 120.283C303.618 119.622 304.028 119.047 304.626 118.751L305.514 120.543ZM265.069 10.577L265.566 8.63991L265.069 10.577ZM2.11691 73.0276L4.10999 72.8612C4.11459 72.9165 4.11691 72.9721 4.11691 73.0276H2.11691ZM51.934 128.509L51.2411 130.386L51.934 128.509ZM142.106 140.839V138.839C142.145 138.839 142.184 138.84 142.223 138.842L142.106 140.839ZM290.374 126.908L289.703 125.024C290.216 124.841 290.781 124.876 291.269 125.119L290.374 126.908ZM321.179 139.963L320.452 141.826H320.452L321.179 139.963ZM333.183 144.684L334.528 143.203C335.244 143.854 335.392 144.924 334.879 145.744C334.366 146.564 333.34 146.9 332.441 146.541L333.183 144.684ZM314.35 128.178L313.048 129.696H313.048L314.35 128.178ZM344 73.0276C344 92.1249 332.121 109.582 306.403 122.334L304.626 118.751C329.474 106.43 340 90.124 340 73.0276H344ZM265.566 8.63991C289.74 14.8504 309.263 24.2661 322.787 35.4217C336.295 46.5638 344 59.6103 344 73.0276H340C340 61.2259 333.213 49.2063 320.242 38.5074C307.288 27.822 288.345 18.6219 264.571 12.5141L265.566 8.63991ZM183.095 0C214.586 0 242.091 2.60897 265.566 8.63991L264.571 12.5141C241.534 6.59555 214.391 4 183.095 4V0ZM0.12384 73.1941C-0.885406 61.1113 4.31067 50.4488 13.9069 41.3673C23.4662 32.3209 37.4807 24.7408 54.4665 18.6451C88.4552 6.44748 134.892 0 183.095 0V4C135.177 4 89.2336 10.4179 55.8176 22.41C39.101 28.4091 25.657 35.7548 16.6564 44.2726C7.69275 52.7554 3.22745 62.2956 4.10999 72.8612L0.12384 73.1941ZM51.2411 130.386C17.3959 117.887 0.116913 96.6618 0.116913 73.0276H4.11691C4.11691 94.3448 19.6495 114.455 52.6268 126.633L51.2411 130.386ZM142.106 142.839C103.556 142.839 73.8158 138.722 51.2411 130.386L52.6268 126.633C74.576 134.739 103.785 138.839 142.106 138.839V142.839ZM291.046 128.792C257.641 140.699 207.344 146.694 141.988 142.835L142.223 138.842C207.292 142.684 256.995 136.683 289.703 125.024L291.046 128.792ZM291.269 125.119C300.657 129.813 310.527 133.663 321.905 138.1L320.452 141.826C309.109 137.404 299.062 133.488 289.48 128.697L291.269 125.119ZM321.905 138.1C325.734 139.593 329.732 141.151 333.925 142.826L332.441 146.541C328.265 144.873 324.283 143.32 320.452 141.826L321.905 138.1ZM331.838 146.164C324.981 139.933 318.763 134.599 313.048 129.696L315.652 126.66C321.365 131.561 327.623 136.93 334.528 143.203L331.838 146.164ZM313.048 129.696C309.957 127.044 307.009 124.515 304.195 122.046L306.834 119.039C309.628 121.491 312.558 124.005 315.652 126.66L313.048 129.696Z" fill="#1E1E1E"/>
</svg>
