<svg width="291" height="133" viewBox="0 0 291 133" fill="none" xmlns="http://www.w3.org/2000/svg">
<path fill-rule="evenodd" clip-rule="evenodd" d="M249.079 92.0624C276.87 82.7238 289 68.9416 289 54.0249C289 35.6711 264.534 17.5397 224.061 8.57483C204.43 4.22656 181.365 2.3327 154.865 2.3327C73.7288 2.3327 -1.09506 21.059 2.09866 54.0249C2.09866 70.3821 15.9471 85.4236 44.1502 94.4032C53.0099 97.224 63.2231 99.3796 74.9443 100.87C73.5286 105.147 71.8741 109.561 70.056 114.412C68.2019 119.358 66.1776 124.759 64.063 130.931C66.0699 128.487 67.9962 126.181 69.8456 123.967C76.3396 116.193 81.8848 109.554 86.6393 102.095C96.8206 102.949 108.003 103.376 120.266 103.376C177.774 106.303 221.268 101.408 249.079 92.0624Z" fill="white"/>
<path d="M249.079 92.0624L249.716 93.9582L249.079 92.0624ZM224.061 8.57483L224.493 6.62216L224.061 8.57483ZM2.09866 54.0249L4.08936 53.832C4.09558 53.8961 4.09866 53.9605 4.09866 54.0249H2.09866ZM44.1502 94.4032L43.5434 96.3089L44.1502 94.4032ZM74.9443 100.87L75.1966 98.8861C75.7895 98.9615 76.3176 99.2981 76.6363 99.8038C76.955 100.309 77.0308 100.931 76.8429 101.499L74.9443 100.87ZM70.056 114.412L68.1832 113.71L70.056 114.412ZM64.063 130.931L65.6085 132.2C64.9945 132.948 63.9335 133.149 63.0886 132.678C62.2438 132.206 61.8574 131.198 62.1709 130.283L64.063 130.931ZM69.8456 123.967L71.3806 125.249L69.8456 123.967ZM86.6393 102.095L84.9528 101.02C85.3522 100.393 86.0661 100.039 86.8066 100.102L86.6393 102.095ZM120.266 103.376V101.376C120.299 101.376 120.333 101.377 120.367 101.379L120.266 103.376ZM291 54.0249C291 70.2764 277.754 84.5367 249.716 93.9582L248.442 90.1666C275.986 80.9109 287 67.6069 287 54.0249H291ZM224.493 6.62216C244.9 11.1423 261.408 18.0001 272.867 26.1491C284.278 34.2641 291 43.9102 291 54.0249H287C287 45.7857 281.489 37.1892 270.549 29.4089C259.656 21.6626 243.695 14.9723 223.628 10.5275L224.493 6.62216ZM154.865 0.332703C181.449 0.332703 204.671 2.23141 224.493 6.62216L223.628 10.5275C204.189 6.22172 181.282 4.3327 154.865 4.3327V0.332703ZM0.108002 54.2177C-0.777191 45.0806 3.80429 37.1346 11.9469 30.4908C20.0643 23.8677 31.9297 18.342 46.267 13.9059C74.9707 5.02474 114.176 0.332703 154.865 0.332703V4.3327C114.418 4.3327 75.6431 9.00379 47.4493 17.7272C33.3378 22.0934 22.025 27.4305 14.4756 33.5901C6.95151 39.7292 3.37769 46.4862 4.08936 53.832L0.108002 54.2177ZM43.5434 96.3089C15.0611 87.2404 0.0986633 71.7175 0.0986633 54.0249H4.09866C4.09866 69.0467 16.8331 83.6067 44.7569 92.4974L43.5434 96.3089ZM74.692 102.854C62.8789 101.352 52.5431 99.1743 43.5434 96.3089L44.7569 92.4974C53.4768 95.2737 63.5673 97.4072 75.1966 98.8861L74.692 102.854ZM68.1832 113.71C70.0044 108.851 71.6444 104.474 73.0456 100.242L76.8429 101.499C75.4127 105.819 73.7438 110.271 71.9288 115.114L68.1832 113.71ZM62.1709 130.283C64.296 124.081 66.3296 118.655 68.1832 113.71L71.9288 115.114C70.0741 120.062 68.0592 125.438 65.955 131.579L62.1709 130.283ZM71.3806 125.249C69.5305 127.464 67.6094 129.764 65.6085 132.2L62.5174 129.662C64.5304 127.211 66.4619 124.898 68.3106 122.685L71.3806 125.249ZM88.3259 103.17C83.4901 110.756 77.8586 117.494 71.3806 125.249L68.3106 122.685C74.8206 114.891 80.2795 108.352 84.9528 101.02L88.3259 103.17ZM120.266 105.376C107.957 105.376 96.7185 104.948 86.4721 104.088L86.8066 100.102C96.9227 100.951 108.048 101.376 120.266 101.376V105.376ZM249.716 93.9582C221.569 103.417 177.793 108.307 120.164 105.374L120.367 101.379C177.755 104.3 220.966 99.3995 248.442 90.1666L249.716 93.9582Z" fill="#1E1E1E"/>
</svg>
